<svg width="61" height="61" viewBox="0 0 61 61" fill="none" xmlns="http://www.w3.org/2000/svg">
<path d="M21.1663 18.1085C20.9602 18.3791 20.9256 18.7435 21.0774 19.048C22.8735 22.6544 26.4839 24.8946 30.5 24.8946C34.5161 24.8946 38.1266 22.6543 39.9226 19.048C40.0743 18.7435 40.0398 18.3791 39.8337 18.1085C38.3379 16.1437 36.3232 14.7396 34.0504 14.023C35.3637 12.9764 36.2077 11.3649 36.2077 9.55893C36.2077 6.41171 33.6472 3.85126 30.5 3.85126C27.3528 3.85126 24.7923 6.41171 24.7923 9.55893C24.7923 11.3649 25.6363 12.9764 26.9496 14.023C24.6768 14.7396 22.6621 16.1437 21.1663 18.1085ZM26.5794 9.55893C26.5794 7.39712 28.3382 5.63837 30.5 5.63837C32.6618 5.63837 34.4206 7.39712 34.4206 9.55893C34.4206 11.7207 32.6618 13.4794 30.5 13.4794C28.3382 13.4794 26.5794 11.7206 26.5794 9.55893ZM30.5 15.2665C33.4393 15.2665 36.162 16.5285 38.0554 18.7487C36.4909 21.4513 33.645 23.1075 30.5 23.1075C27.355 23.1075 24.5091 21.4513 22.9446 18.7487C24.838 16.5285 27.5607 15.2665 30.5 15.2665Z" fill="white"/>
<path d="M58.7469 38.8983C58.4811 38.4824 57.9287 38.361 57.5129 38.6267C57.0971 38.8924 56.9754 39.445 57.2412 39.8608C58.531 41.8789 59.2129 44.2186 59.2129 46.6269C59.2129 53.5668 53.5668 59.2129 46.6269 59.2129C39.6869 59.2129 34.0409 53.5668 34.0409 46.6269C34.0409 39.6869 39.6869 34.0409 46.6269 34.0409C49.563 34.0409 52.4195 35.073 54.6702 36.9472C55.0494 37.2629 55.6128 37.2115 55.9287 36.8323C56.2444 36.4531 56.193 35.8896 55.8138 35.5738C53.2425 33.4329 49.98 32.2539 46.627 32.2539C42.5828 32.2539 38.924 33.9335 36.3097 36.631L31.3936 33.7214V28.7177C38.9042 28.2547 44.8731 21.9984 44.8731 14.3731C44.8731 13.319 44.7585 12.2707 44.5324 11.2572C44.4249 10.7757 43.9474 10.4717 43.4657 10.5797C42.9841 10.6872 42.6807 11.1647 42.7882 11.6464C42.9858 12.5323 43.086 13.4497 43.086 14.3731C43.086 21.3131 37.4399 26.9591 30.5 26.9591C23.5601 26.9591 17.914 21.3131 17.914 14.3731C17.914 7.43318 23.5601 1.78711 30.5 1.78711C34.955 1.78711 39.1215 4.17957 41.3735 8.03079C41.6226 8.45684 42.1699 8.60017 42.5959 8.35104C43.0219 8.10192 43.1652 7.55471 42.9161 7.12866C40.3449 2.73154 35.5873 0 30.5 0C22.5746 0 16.1269 6.44777 16.1269 14.3731C16.1269 21.9984 22.0958 28.2546 29.6064 28.7177V33.7214L24.6905 36.6309C22.0762 33.9334 18.4174 32.2537 14.3731 32.2537C9.1027 32.2537 4.26237 35.1323 1.74088 39.7662C1.50498 40.1996 1.66523 40.7422 2.09866 40.9781C2.53221 41.214 3.07466 41.0537 3.31056 40.6203C5.51883 36.562 9.75774 34.0409 14.373 34.0409C21.3129 34.0409 26.959 39.6869 26.959 46.6269C26.959 53.5668 21.3131 59.2129 14.3731 59.2129C7.43318 59.2129 1.78711 53.5668 1.78711 46.6269C1.78711 45.8371 1.86121 45.0461 2.0074 44.276C2.09938 43.7912 1.78091 43.3236 1.29601 43.2315C0.811705 43.1397 0.343602 43.458 0.251506 43.9429C0.0845898 44.8225 0 45.7256 0 46.6269C0 54.5522 6.44777 61 14.3731 61C22.2985 61 28.7463 54.5522 28.7463 46.6269C28.7463 43.3969 27.6751 40.4124 25.8695 38.0097L30.5 35.2692L35.1305 38.0098C33.3249 40.4125 32.2537 43.3969 32.2537 46.627C32.2537 54.5523 38.7015 61.0001 46.6269 61.0001C54.5522 61.0001 61 54.5522 61 46.6269C61 43.8769 60.2209 41.2044 58.7469 38.8983Z" fill="white"/>
<path d="M37.2934 50.3625C37.0873 50.6332 37.0527 50.9975 37.2045 51.302C39.0005 54.9084 42.611 57.1486 46.6271 57.1486C50.6432 57.1486 54.2536 54.9083 56.0497 51.302C56.2013 50.9975 56.1669 50.6332 55.9608 50.3625C54.465 48.3977 52.4503 46.9937 50.1775 46.277C51.4906 45.2304 52.3348 43.6189 52.3348 41.8129C52.3348 38.6657 49.7743 36.1054 46.6272 36.1054C43.48 36.1054 40.9195 38.6658 40.9195 41.8129C40.9195 43.6189 41.7635 45.2305 43.0768 46.277C40.8039 46.9937 38.7892 48.3977 37.2934 50.3625ZM42.7065 41.8129C42.7065 39.6511 44.4653 37.8925 46.6271 37.8925C48.7889 37.8925 50.5475 39.6513 50.5475 41.8129C50.5475 43.9747 48.7888 45.7335 46.6271 45.7335C44.4653 45.7335 42.7065 43.9747 42.7065 41.8129ZM46.6271 47.5206C49.5664 47.5206 52.2891 48.7827 54.1825 51.0029C52.618 53.7054 49.772 55.3616 46.6271 55.3616C43.4821 55.3616 40.6362 53.7054 39.0717 51.0029C40.9649 48.7827 43.6877 47.5206 46.6271 47.5206Z" fill="white"/>
<path d="M5.03918 50.3625C4.83307 50.6332 4.79852 50.9975 4.9503 51.302C6.74635 54.9084 10.3568 57.1486 14.3729 57.1486C18.389 57.1486 21.9994 54.9083 23.7955 51.302C23.9472 50.9975 23.9127 50.6332 23.7066 50.3625C22.2108 48.3977 20.1961 46.9937 17.9233 46.277C19.2366 45.2304 20.0806 43.6189 20.0806 41.8129C20.0806 38.6657 17.5201 36.1054 14.3729 36.1054C11.2257 36.1054 8.66535 38.6658 8.66535 41.8129C8.66535 43.6189 9.50934 45.2305 10.8226 46.277C8.54978 46.9937 6.53511 48.3977 5.03918 50.3625ZM10.4525 41.8129C10.4525 39.6511 12.2112 37.8925 14.3729 37.8925C16.5347 37.8925 18.2935 39.6513 18.2935 41.8129C18.2935 43.9747 16.5347 45.7335 14.3729 45.7335C12.2112 45.7335 10.4525 43.9747 10.4525 41.8129ZM14.3729 47.5206C17.3122 47.5206 20.0349 48.7827 21.9283 51.0029C20.3638 53.7054 17.5179 55.3616 14.3729 55.3616C11.2279 55.3616 8.38203 53.7054 6.81747 51.0029C8.71086 48.7827 11.4336 47.5206 14.3729 47.5206Z" fill="white"/>
</svg>
