<svg width="61" height="60" viewBox="0 0 61 60" fill="none" xmlns="http://www.w3.org/2000/svg">
<path d="M14.3003 11.6147C14.3003 10.631 13.4866 9.83074 12.4866 9.83074H8.64029C7.64015 9.83074 6.82647 10.631 6.82647 11.6147V15.3977C6.82647 16.3814 7.64027 17.1817 8.64029 17.1817H12.4867C13.4868 17.1817 14.3004 16.3814 14.3004 15.3977L14.3003 11.6147ZM12.5133 15.3976C12.5133 15.4121 12.5012 15.4239 12.4866 15.4239H8.64029C8.62552 15.4239 8.61348 15.412 8.61348 15.3976V11.6147C8.61348 11.6002 8.62552 11.5884 8.64029 11.5884H12.4867C12.5014 11.5884 12.5134 11.6003 12.5134 11.6147L12.5133 15.3976Z" fill="white"/>
<path d="M23.8632 11.6147C23.8632 10.631 23.0495 9.83074 22.0495 9.83074H18.203C17.2029 9.83074 16.3892 10.631 16.3892 11.6147V15.3977C16.3892 16.3814 17.203 17.1817 18.203 17.1817H22.0495C23.0496 17.1817 23.8632 16.3814 23.8632 15.3977V11.6147ZM22.0761 15.3976C22.0761 15.4121 22.0641 15.4239 22.0495 15.4239H18.203C18.1883 15.4239 18.1762 15.412 18.1762 15.3976V11.6147C18.1762 11.6002 18.1883 11.5884 18.203 11.5884H22.0495C22.0641 11.5884 22.0761 11.6003 22.0761 11.6147V15.3976Z" fill="white"/>
<path d="M14.3003 21.3352C14.3003 20.3515 13.4866 19.5512 12.4866 19.5512H8.64029C7.64015 19.5512 6.82647 20.3515 6.82647 21.3352V25.1182C6.82647 26.1019 7.64027 26.9021 8.64029 26.9021H12.4867C13.4868 26.9021 14.3004 26.1019 14.3004 25.1182L14.3003 21.3352ZM12.5133 25.1181C12.5133 25.1326 12.5012 25.1443 12.4866 25.1443H8.64029C8.62552 25.1443 8.61348 25.1325 8.61348 25.1181V21.3352C8.61348 21.3206 8.62552 21.3089 8.64029 21.3089H12.4867C12.5014 21.3089 12.5134 21.3207 12.5134 21.3352L12.5133 25.1181Z" fill="white"/>
<path d="M23.8632 21.3352C23.8632 20.3515 23.0495 19.5512 22.0495 19.5512H18.203C17.2029 19.5512 16.3892 20.3515 16.3892 21.3352V25.1182C16.3892 26.1019 17.203 26.9021 18.203 26.9021H22.0495C23.0496 26.9021 23.8632 26.1019 23.8632 25.1182V21.3352ZM22.0761 25.1181C22.0761 25.1326 22.0641 25.1443 22.0495 25.1443H18.203C18.1883 25.1443 18.1762 25.1325 18.1762 25.1181V21.3352C18.1762 21.3206 18.1883 21.3089 18.203 21.3089H22.0495C22.0641 21.3089 22.0761 21.3207 22.0761 21.3352V25.1181Z" fill="white"/>
<path d="M12.4866 29.2717H8.64029C7.64015 29.2717 6.82647 30.072 6.82647 31.0556V34.8387C6.82647 35.8223 7.64027 36.6226 8.64029 36.6226H12.4867C13.4868 36.6226 14.3004 35.8223 14.3004 34.8387V31.0556C14.3003 30.072 13.4867 29.2717 12.4866 29.2717ZM12.5133 34.8387C12.5133 34.8532 12.5012 34.8649 12.4866 34.8649H8.64029C8.62552 34.8649 8.61348 34.8531 8.61348 34.8387V31.0556C8.61348 31.0411 8.62552 31.0294 8.64029 31.0294H12.4867C12.5014 31.0294 12.5134 31.0412 12.5134 31.0556L12.5133 34.8387Z" fill="white"/>
<path d="M22.0495 29.2717H18.203C17.2029 29.2717 16.3892 30.072 16.3892 31.0556V34.8387C16.3892 35.8223 17.203 36.6226 18.203 36.6226H22.0495C23.0496 36.6226 23.8632 35.8223 23.8632 34.8387V31.0556C23.8632 30.072 23.0496 29.2717 22.0495 29.2717ZM22.0761 34.8387C22.0761 34.8532 22.0641 34.8649 22.0495 34.8649H18.203C18.1883 34.8649 18.1762 34.8531 18.1762 34.8387V31.0556C18.1762 31.0411 18.1883 31.0294 18.203 31.0294H22.0495C22.0641 31.0294 22.0761 31.0412 22.0761 31.0556V34.8387Z" fill="white"/>
<path d="M58.1587 54.4114H56.8326V46.9852C56.8326 44.0268 54.8168 41.3786 51.9306 40.5451L46.5188 38.9825C46.3663 38.8418 46.1905 38.726 45.9983 38.6419L44.8747 38.1495C44.5568 38.0102 44.2179 37.9482 43.8829 37.9586V35.4806C45.6612 34.2059 46.9 32.237 47.1684 29.9678C48.0493 29.7537 48.7044 28.9697 48.7044 28.0382V21.0439C48.7044 19.4291 47.3936 18.1098 45.7636 18.0608C45.6755 16.4923 44.3502 15.2426 42.7337 15.2426H35.3559C34.6762 15.2426 34.0238 15.3588 33.4169 15.5704C33.4225 15.5134 33.4258 15.4559 33.4258 15.3975V11.6147C33.4258 10.631 32.6121 9.83074 31.6121 9.83074H27.7657C26.7655 9.83074 25.9519 10.631 25.9519 11.6147V15.3977C25.9519 16.3814 26.7657 17.1817 27.7657 17.1817H30.9949C30.3931 17.8514 29.9472 18.6594 29.7155 19.5513H27.7657C26.7655 19.5513 25.9519 20.3516 25.9519 21.3353V25.1183C25.9519 26.102 26.7657 26.9023 27.7657 26.9023H29.5348V28.0383C29.5348 28.504 29.6985 28.9328 29.9722 29.2719H27.7656C26.7654 29.2719 25.9517 30.0722 25.9517 31.0559V34.8389C25.9517 35.8226 26.7655 36.6227 27.7656 36.6227H31.612C32.6121 36.6227 33.4257 35.8225 33.4257 34.8389V34.7036C33.7154 34.985 34.0267 35.2447 34.3562 35.481V37.9541C34.024 37.9463 33.6886 38.0091 33.375 38.1476L32.273 38.6343C32.082 38.7185 31.9075 38.8341 31.756 38.9742L26.3118 40.5458C23.4254 41.379 21.4095 44.0272 21.4095 46.9859V47.5826C21.4095 48.068 21.8095 48.4614 22.303 48.4614C22.7965 48.4614 23.1965 48.0679 23.1965 47.5826V46.9859C23.1965 44.8021 24.6845 42.8473 26.8151 42.2323L31.273 40.9454C31.3644 41.194 31.5112 41.427 31.713 41.6258L34.7655 44.632C34.7685 44.635 34.7715 44.6379 34.7745 44.6407C35.1524 45.0026 35.6419 45.1856 36.133 45.1855C36.2476 45.1855 36.3622 45.1751 36.4757 45.155L37.1094 46.2257L35.6342 54.4114H28.7886V52.5021C28.7886 52.0167 28.3886 51.6233 27.8951 51.6233C27.4016 51.6233 27.0016 52.0168 27.0016 52.5021V54.4114H23.1969V51.6907C23.1969 51.2053 22.7969 50.8119 22.3034 50.8119C21.8098 50.8119 21.4099 51.2054 21.4099 51.6907V54.4114H17.6909V44.156H17.8032C18.2967 44.156 18.6967 43.7625 18.6967 43.2772C18.6967 42.7918 18.2967 42.3984 17.8032 42.3984H7.04511C6.55159 42.3984 6.1516 42.792 6.1516 43.2772C6.1516 43.7626 6.55159 44.156 7.04511 44.156H7.15735V54.4114H3.92135V8.39098C3.92135 7.65902 4.52687 7.06359 5.27096 7.06359H34.9814C35.7256 7.06359 36.3309 7.65902 36.3309 8.39098V11.9546C36.3309 12.44 36.7309 12.8334 37.2244 12.8334C37.7179 12.8334 38.1179 12.4399 38.1179 11.9546V8.39098C38.1179 6.82348 36.9228 5.52621 35.382 5.33203V2.16199C35.3821 0.969844 34.3959 0 33.1838 0H7.06846C5.85635 0 4.87038 0.969844 4.87038 2.16199V5.33203C3.32941 5.52621 2.13434 6.82348 2.13434 8.39098V54.499C0.90852 54.8088 0 55.9048 0 57.2057C0 58.7464 1.27443 60 2.84114 60H58.1589C59.7254 60 61 58.7464 61 57.2057C61 55.6649 59.7254 54.4114 58.1587 54.4114ZM7.06846 1.7577H33.1838C33.4105 1.7577 33.595 1.9391 33.595 2.16199V5.3059H6.6574V2.16199C6.6574 1.93898 6.84184 1.7577 7.06846 1.7577ZM55.0456 46.9852V54.4114H51.238V52.5021C51.238 52.0167 50.838 51.6233 50.3445 51.6233C49.851 51.6233 49.451 52.0168 49.451 52.5021V54.4114H42.6091L41.1315 46.2166L41.7739 45.0843C41.8936 45.1066 42.0146 45.1188 42.1358 45.1188C42.6234 45.1188 43.1106 44.938 43.4908 44.5787L46.5446 41.6539C46.7545 41.453 46.9067 41.212 47 40.9534L51.4275 42.2318C53.5576 42.8468 55.0456 44.8015 55.0456 46.9852ZM38.5602 45.183L37.9976 44.2325L39.1958 43.2482L40.2608 44.1439L39.6713 45.1829H38.5602V45.183ZM44.1474 39.7549L45.2712 40.2475C45.3281 40.2723 45.3447 40.3493 45.2977 40.3945L42.2483 43.3152C42.1882 43.3716 42.0956 43.3743 42.0326 43.3214L40.6176 42.1314L43.6626 39.8125C43.8014 39.7066 43.9873 39.6847 44.1474 39.7549ZM42.7338 17.0003C43.4217 17.0003 43.9812 17.5506 43.9812 18.2271C43.9812 19.1038 44.7063 19.8171 45.5978 19.8171H45.6699C46.3578 19.8171 46.9173 20.3674 46.9173 21.0439V24.7632H46.3314C46.0027 24.7632 45.7352 24.5003 45.7352 24.177V23.375C45.7352 21.973 44.565 20.9469 43.2768 20.9469C43.0161 20.9469 42.7527 20.9883 42.495 21.072C40.3193 21.7793 37.9225 21.7795 35.7439 21.0715C34.1464 20.5523 32.504 21.7199 32.504 23.3747V24.177C32.504 24.5003 32.2366 24.7632 31.9078 24.7632H31.322V20.9677C31.322 18.7801 33.1315 17.0003 35.3559 17.0003H42.7338ZM27.7391 15.3976V11.6147C27.7391 11.6002 27.7511 11.5884 27.7659 11.5884H31.6123C31.627 11.5884 31.639 11.6003 31.639 11.6147V15.3977C31.639 15.4123 31.627 15.424 31.6123 15.424H27.7659C27.7511 15.4239 27.7391 15.4121 27.7391 15.3976ZM27.7391 25.1181V21.3352C27.7391 21.3206 27.7511 21.3089 27.7659 21.3089H29.5351V25.1445H27.7659C27.7511 25.1443 27.7391 25.1326 27.7391 25.1181ZM31.6389 34.8387C31.6389 34.8532 31.6269 34.8649 31.6122 34.8649H27.7658C27.751 34.8649 27.739 34.8532 27.739 34.8387V31.0556C27.739 31.0411 27.751 31.0294 27.7658 31.0294H31.2724C31.3691 31.3988 31.4916 31.7577 31.6388 32.1039L31.6389 34.8387ZM32.8162 29.4352C32.7739 28.7807 32.2202 28.2679 31.5558 28.2679C31.427 28.2679 31.3222 28.1647 31.3222 28.038V26.5209H31.9081C33.2222 26.5209 34.2913 25.4694 34.2913 24.177V23.3747C34.2913 22.924 34.7379 22.5957 35.1862 22.7414C37.7239 23.5659 40.5188 23.5657 43.056 22.7408C43.4952 22.5982 43.9483 22.9186 43.9483 23.375V24.177C43.9483 25.4694 45.0174 26.5209 46.3315 26.5209H46.9174V28.038C46.9174 28.1647 46.8125 28.2679 46.6837 28.2679C46.0192 28.2679 45.4657 28.7805 45.4234 29.4355C45.2143 32.6971 42.4455 35.252 39.1197 35.252C35.7941 35.252 33.0253 32.6971 32.8162 29.4352ZM39.1199 37.0096C40.1678 37.0096 41.1722 36.8109 42.0959 36.4505V38.7824L39.1928 40.9934L36.1436 38.7525V36.4506C37.0674 36.8109 38.0718 37.0096 39.1199 37.0096ZM32.978 40.3835C32.9296 40.3359 32.9517 40.2609 33.0053 40.2374L34.1072 39.7508C34.2648 39.6814 34.4485 39.7011 34.5872 39.8029L37.7618 42.1361L36.2359 43.3895C36.1735 43.4407 36.0828 43.4382 36.0236 43.384L32.978 40.3835ZM38.7957 46.9406H39.4469L40.794 54.4114H37.4494L38.7957 46.9406ZM8.94448 44.156H15.9037V54.4114H8.94448V44.156ZM58.1587 58.2423H2.84114C2.25992 58.2423 1.78713 57.7773 1.78713 57.2057C1.78713 56.634 2.25992 56.1691 2.84114 56.1691H58.1589C58.7401 56.1691 59.2129 56.6341 59.2129 57.2057C59.2129 57.7772 58.74 58.2423 58.1587 58.2423Z" fill="white"/>
</svg>
