<svg width="61" height="61" viewBox="0 0 61 61" fill="none" xmlns="http://www.w3.org/2000/svg">
<path d="M30.5 61C29.0219 61 27.8193 59.7974 27.8193 58.3193C27.8193 58.2718 27.8206 58.2246 27.823 58.1777L12.8205 51.9635C12.3295 52.5087 11.6185 52.852 10.8287 52.852C9.35063 52.852 8.14803 51.6494 8.14803 50.1713C8.14803 48.6932 9.35063 47.4906 10.8287 47.4906C12.3068 47.4906 13.5094 48.6932 13.5094 50.1713C13.5094 50.2188 13.508 50.266 13.5057 50.313L28.5082 56.5271C28.9992 55.9819 29.7102 55.6387 30.5 55.6387C31.2898 55.6387 32.0008 55.9819 32.4918 56.5271L47.4943 50.313C47.4918 50.2659 47.4906 50.2188 47.4906 50.1713C47.4906 48.6932 48.6932 47.4906 50.1713 47.4906C51.6494 47.4906 52.852 48.6932 52.852 50.1713C52.852 51.6494 51.6494 52.852 50.1713 52.852C49.3815 52.852 48.6705 52.5087 48.1795 51.9635L33.177 58.1777C33.1795 58.2247 33.1807 58.2718 33.1807 58.3193C33.1807 59.7974 31.9781 61 30.5 61ZM30.5 57.4258C30.0072 57.4258 29.6064 57.8266 29.6064 58.3193C29.6064 58.8121 30.0072 59.2129 30.5 59.2129C30.9928 59.2129 31.3936 58.8121 31.3936 58.3193C31.3936 57.8266 30.9928 57.4258 30.5 57.4258ZM50.1712 49.2776C49.6784 49.2776 49.2776 49.6784 49.2776 50.1712C49.2776 50.664 49.6784 51.0647 50.1712 51.0647C50.664 51.0647 51.0647 50.664 51.0647 50.1712C51.0647 49.6784 50.664 49.2776 50.1712 49.2776ZM10.8288 49.2776C10.336 49.2776 9.93526 49.6784 9.93526 50.1712C9.93526 50.664 10.336 51.0647 10.8288 51.0647C11.3216 51.0647 11.7224 50.664 11.7224 50.1712C11.7224 49.6784 11.3215 49.2776 10.8288 49.2776ZM30.5 50.2773C19.5947 50.2773 10.7227 41.4053 10.7227 30.5C10.7227 19.5947 19.5947 10.7227 30.5 10.7227C34.366 10.7227 38.1111 11.8383 41.3304 13.9491C41.7431 14.2197 41.8583 14.7737 41.5877 15.1864C41.3171 15.5992 40.7629 15.7142 40.3504 15.4437C39.3408 14.7818 38.2744 14.2275 37.1662 13.7853C37.9677 14.5996 38.7146 15.5685 39.3928 16.6824C39.815 17.3758 40.2019 18.1119 40.5517 18.8838H44.2416C43.7982 18.3624 43.3225 17.8624 42.8151 17.3856C42.4553 17.0477 42.4377 16.4823 42.7757 16.1226C43.1135 15.7627 43.6791 15.7451 44.0387 16.0832C48.0034 19.8076 50.2773 25.0623 50.2773 30.5C50.2773 41.4053 41.4053 50.2773 30.5 50.2773ZM31.3936 42.1162V48.426C33.8106 48.0774 36.0819 46.3194 37.8665 43.3882C38.1151 42.9799 38.3503 42.5557 38.5718 42.1162H31.3936ZM22.4282 42.1162C22.6497 42.5556 22.8849 42.9799 23.1335 43.3882C24.9181 46.3195 27.1894 48.0774 29.6064 48.426V42.1162H22.4282ZM40.5518 42.1162C40.202 42.8881 39.8151 43.6241 39.3929 44.3176C38.7168 45.428 37.9724 46.3944 37.1737 47.2071C39.9232 46.1047 42.3408 44.3415 44.2269 42.1163H40.5518V42.1162ZM16.773 42.1162C18.6591 44.3415 21.0767 46.1047 23.8262 47.207C23.0275 46.3943 22.2831 45.4278 21.607 44.3175C21.1848 43.6241 20.7979 42.888 20.4481 42.1161H16.773V42.1162ZM41.2726 40.3291H45.5616C47.2598 37.7356 48.3068 34.6787 48.4683 31.3936H42.8785C42.7911 34.5748 42.2379 37.6241 41.2726 40.3291ZM31.3936 40.3291H39.3666C40.4021 37.6736 40.9976 34.6124 41.0908 31.3936H31.3936V40.3291ZM21.6334 40.3291H29.6064V31.3936H19.9092C20.0024 34.6124 20.5979 37.6736 21.6334 40.3291ZM15.4384 40.3291H19.7274C18.762 37.6241 18.2089 34.5748 18.1215 31.3936H12.5317C12.6932 34.6787 13.7402 37.7356 15.4384 40.3291ZM42.8785 29.6064H48.4688C48.3134 26.3752 47.3167 23.3183 45.5801 20.6709H41.2726C42.2379 23.3759 42.7911 26.4252 42.8785 29.6064ZM31.3936 29.6064H41.0908C40.9977 26.3876 40.4023 23.3264 39.3666 20.6709H31.3936V22.7559C31.3936 23.2495 30.9936 23.6494 30.5 23.6494C30.0064 23.6494 29.6064 23.2495 29.6064 22.7559V20.6709H21.6334C20.5979 23.3264 20.0024 26.3876 19.9092 29.6064H29.6064V26.3301C29.6064 25.8365 30.0064 25.4365 30.5 25.4365C30.9936 25.4365 31.3936 25.8365 31.3936 26.3301V29.6064ZM12.5317 29.6064H18.1215C18.2089 26.4252 18.7621 23.3759 19.7274 20.6709H15.4384C13.7402 23.2644 12.6932 26.3213 12.5317 29.6064ZM31.3936 18.8838H38.5718C38.3503 18.4444 38.1151 18.0201 37.8665 17.6118C36.0819 14.6805 33.8106 12.9226 31.3936 12.574V18.8838ZM22.4282 18.8838H29.6064V12.574C27.1894 12.9226 24.9181 14.6806 23.1335 17.6118C22.8849 18.0201 22.6497 18.4444 22.4282 18.8838ZM16.773 18.8838H20.4482C20.798 18.1119 21.1849 17.3759 21.6071 16.6824C22.2832 15.572 23.0276 14.6056 23.8263 13.7929C21.0767 14.8953 18.6591 16.6585 16.773 18.8838ZM52.0975 46.4138C51.9834 46.4138 51.8676 46.3919 51.7559 46.3456C51.2999 46.1567 51.0833 45.6341 51.2723 45.1781L56.527 32.4918C55.9819 32.0008 55.6387 31.2898 55.6387 30.5C55.6387 29.7102 55.9819 28.9992 56.5271 28.5082L50.313 13.5057C50.2659 13.5082 50.2188 13.5094 50.1713 13.5094C48.6932 13.5094 47.4906 12.3068 47.4906 10.8287C47.4906 9.35063 48.6932 8.14803 50.1713 8.14803C51.6494 8.14803 52.852 9.35063 52.852 10.8287C52.852 11.6185 52.5087 12.3295 51.9635 12.8205L58.1777 27.823C58.2247 27.8205 58.2718 27.8193 58.3193 27.8193C59.7974 27.8193 61 29.0219 61 30.5C61 31.9781 59.7974 33.1807 58.3193 33.1807C58.2718 33.1807 58.2246 33.1794 58.1777 33.177L52.9233 45.862C52.7808 46.2061 52.4481 46.4138 52.0975 46.4138ZM58.3193 29.6064C57.8266 29.6064 57.4258 30.0072 57.4258 30.5C57.4258 30.9928 57.8266 31.3936 58.3193 31.3936C58.8121 31.3936 59.2129 30.9928 59.2129 30.5C59.2129 30.0072 58.8121 29.6064 58.3193 29.6064ZM50.1712 9.93526C49.6784 9.93526 49.2776 10.336 49.2776 10.8288C49.2776 11.3216 49.6784 11.7224 50.1712 11.7224C50.664 11.7224 51.0647 11.3216 51.0647 10.8288C51.0647 10.336 50.664 9.93526 50.1712 9.93526ZM8.90254 46.4138C8.55191 46.4138 8.21927 46.2062 8.07666 45.862L2.82232 33.177C2.77526 33.1795 2.7282 33.1807 2.68066 33.1807C1.20261 33.1807 0 31.9781 0 30.5C0 29.0219 1.20261 27.8193 2.68066 27.8193C2.7282 27.8193 2.77538 27.8206 2.82232 27.823L9.03646 12.8205C8.49127 12.3295 8.14803 11.6185 8.14803 10.8287C8.14803 9.35063 9.35063 8.14803 10.8287 8.14803C11.6185 8.14803 12.3295 8.49127 12.8205 9.03646L27.823 2.82232C27.8205 2.77526 27.8193 2.7282 27.8193 2.68066C27.8193 1.20261 29.0219 0 30.5 0C31.9781 0 33.1807 1.20261 33.1807 2.68066C33.1807 2.7282 33.1794 2.77538 33.177 2.82232L45.8796 8.08393C46.3356 8.27277 46.5522 8.79544 46.3632 9.25139C46.1744 9.70734 45.6516 9.92418 45.1958 9.73498L32.4918 4.4729C32.0008 5.01796 31.2897 5.36133 30.5 5.36133C29.7102 5.36133 28.9992 5.01808 28.5082 4.4729L13.5057 10.687C13.5082 10.7341 13.5094 10.7812 13.5094 10.8287C13.5094 12.3068 12.3068 13.5094 10.8287 13.5094C10.7812 13.5094 10.734 13.508 10.687 13.5057L4.4729 28.5082C5.01808 28.9992 5.36133 29.7102 5.36133 30.5C5.36133 31.2898 5.01808 32.0008 4.4729 32.4918L9.72759 45.1781C9.91655 45.6341 9.70007 46.1567 9.244 46.3456C9.13225 46.3919 9.01644 46.4138 8.90254 46.4138ZM2.68066 29.6064C2.1879 29.6064 1.78711 30.0072 1.78711 30.5C1.78711 30.9928 2.1879 31.3936 2.68066 31.3936C3.17343 31.3936 3.57422 30.9928 3.57422 30.5C3.57422 30.0072 3.17343 29.6064 2.68066 29.6064ZM10.8288 9.93526C10.336 9.93526 9.93526 10.336 9.93526 10.8288C9.93526 11.3216 10.336 11.7224 10.8288 11.7224C11.3216 11.7224 11.7224 11.3216 11.7224 10.8288C11.7224 10.336 11.3215 9.93526 10.8288 9.93526ZM30.5 1.78711C30.0072 1.78711 29.6064 2.1879 29.6064 2.68066C29.6064 3.17343 30.0072 3.57422 30.5 3.57422C30.9928 3.57422 31.3936 3.17343 31.3936 2.68066C31.3936 2.1879 30.9928 1.78711 30.5 1.78711Z" fill="white"/>
</svg>
