<svg width="62" height="61" viewBox="0 0 62 61" fill="none" xmlns="http://www.w3.org/2000/svg">
<g clip-path="url(#clip0_53:871)">
<path d="M33.9191 35.878C33.9199 35.8778 33.9205 35.8776 33.9212 35.8773C34.07 35.8353 34.2098 35.751 34.3117 35.6507C35.0695 34.9051 50.8728 19.3567 51.637 18.6048C52.3145 17.9382 52.5316 16.9887 52.2916 16.1392H55.3885C55.8902 16.1392 56.2967 15.7391 56.2967 15.2456C56.2967 14.7521 55.8902 14.3521 55.3885 14.3521H50.9441L49.6671 13.0959C48.6664 12.1113 47.0383 12.1113 46.0376 13.0959L44.7608 14.3521H27.874C27.3725 14.3521 26.9658 14.7521 26.9658 15.2456C26.9658 15.2652 26.9667 35.9481 26.9667 35.9481C26.9672 36.3227 27.1145 36.6861 27.3873 36.9544C27.7591 37.3202 28.3095 37.4561 28.8218 37.3118L33.9191 35.878ZM33.6696 33.7552L30.6391 30.7736L45.1371 16.5094L48.1676 19.491L33.6696 33.7552ZM42.9444 16.1393L28.7822 30.0732V16.1393H42.9444ZM28.9497 35.4172L29.8035 32.479L31.936 34.577C30.8217 34.8907 30.0504 35.1076 28.9497 35.4172ZM50.3525 17.3412L49.4518 18.2274L46.4214 15.2457L47.322 14.3596C47.6148 14.0713 48.0897 14.0711 48.3826 14.3596C50.3311 16.2767 49.5368 15.4951 50.3525 16.2976C50.6458 16.5861 50.6457 17.0528 50.3525 17.3412Z" fill="white"/>
<path d="M61.0918 40.094C61.5935 40.094 62 39.6939 62 39.2004V11.333C62 9.60817 60.5738 8.20505 58.8207 8.20505H56.8696V5.60302C56.8696 3.87822 55.4435 2.4751 53.6904 2.4751H3.1792C1.40299 2.47498 -0.000121086 3.8999 7.83753e-09 5.60302V12.1096C7.83753e-09 12.6031 0.406633 13.0032 0.908203 13.0032C1.40977 13.0032 1.81641 12.6031 1.81641 12.1096V5.6029C1.81629 4.84457 2.44149 4.26209 3.1792 4.26209H53.6904C54.4418 4.26209 55.0532 4.86363 55.0532 5.6029V8.20493C49.2994 8.20493 14.2248 8.20493 8.3097 8.20493C6.55662 8.20493 5.1305 9.60817 5.1305 11.3328V45.8406H3.1792C2.42769 45.8406 1.81641 45.2391 1.81641 44.4998V16.2796C1.81641 15.7861 1.40977 15.386 0.908203 15.386C0.406633 15.386 7.83753e-09 15.7861 7.83753e-09 16.2796V44.4998C7.83753e-09 46.2246 1.42624 47.6277 3.1792 47.6277H5.13038V50.2298C5.13038 51.9546 6.55662 53.3577 8.30957 53.3577H14.6695V56.7975C14.6695 57.75 15.4573 58.5251 16.4254 58.5251H22.8465C23.8147 58.5251 24.6024 57.75 24.6024 56.7975V53.3577H58.8206C60.5736 53.3577 61.9999 51.9544 61.9999 50.2298V43.3704C61.9999 42.8769 61.5934 42.4768 61.0917 42.4768C60.59 42.4768 60.1835 42.8769 60.1835 43.3704V50.2298C60.1835 50.9692 59.5721 51.5706 58.8206 51.5706H24.6025V21.1131C24.6025 20.1606 23.8148 19.3856 22.8466 19.3856H16.4255C15.4574 19.3856 14.6697 20.1606 14.6697 21.1131V51.5707H8.3097C7.55819 51.5707 6.94691 50.9692 6.94691 50.2299C6.94691 49.4238 6.94691 12.141 6.94691 11.3331C6.94691 10.5937 7.55831 9.99228 8.3097 9.99228H58.8208C59.5723 9.99228 60.1837 10.5938 60.1837 11.3331V39.2006C60.1836 39.6939 60.5901 40.094 61.0918 40.094ZM16.4861 21.1727H22.7861V24.5529H21.4336C20.932 24.5529 20.5254 24.953 20.5254 25.4465C20.5254 25.94 20.932 26.34 21.4336 26.34H22.7861V31.3074H21.4336C20.932 31.3074 20.5254 31.7074 20.5254 32.2009C20.5254 32.6944 20.932 33.0945 21.4336 33.0945H22.7861V38.0618H21.4336C20.932 38.0618 20.5254 38.4619 20.5254 38.9554C20.5254 39.4488 20.932 39.8489 21.4336 39.8489H22.7861V44.8162H21.4336C20.932 44.8162 20.5254 45.2163 20.5254 45.7098C20.5254 46.2033 20.932 46.6034 21.4336 46.6034H22.7861V51.5707H21.4336C20.932 51.5707 20.5254 51.9708 20.5254 52.4642C20.5254 52.9577 20.932 53.3578 21.4336 53.3578H22.7861V56.7381H16.4861V52.4642C16.4861 51.3341 16.4861 22.5125 16.4861 21.1727Z" fill="white"/>
</g>
<defs>
<clipPath id="clip0_53:871">
<rect width="62" height="61" fill="white"/>
</clipPath>
</defs>
</svg>
