
<svg width="68" height="77" fill="none" xmlns="http://www.w3.org/2000/svg"><path d="M64.825 38.666c1.155-1.441 2.464-3.075 2.464-5.021 0-1.947-1.309-3.581-2.464-5.023-.806-1.006-1.568-1.957-1.807-2.849-.255-.954-.068-2.196.13-3.512.282-1.88.574-3.824-.363-5.443-.952-1.645-2.798-2.366-4.583-3.063-1.225-.478-2.382-.93-3.06-1.608-.678-.678-1.13-1.835-1.608-3.06-.697-1.785-1.418-3.631-3.063-4.583-1.62-.937-3.563-.645-5.443-.363-1.316.198-2.559.385-3.512.13-.892-.239-1.843-1-2.85-1.807C37.225 1.309 35.591 0 33.645 0c-1.947 0-3.581 1.309-5.022 2.464-1.007.807-1.958 1.568-2.85 1.807-.954.255-2.196.068-3.512-.13-1.88-.282-3.824-.574-5.443.363-1.645.952-2.366 2.798-3.063 4.583-.478 1.225-.93 2.382-1.608 3.06-.678.678-1.835 1.13-3.06 1.608-1.785.697-3.631 1.418-4.583 3.063-.937 1.62-.645 3.563-.363 5.443.198 1.316.385 2.559.13 3.512-.239.893-1 1.843-1.807 2.85C1.309 30.064 0 31.698 0 33.645c0 1.946 1.309 3.58 2.464 5.021.807 1.007 1.568 1.958 1.807 2.85.255.954.068 2.196-.13 3.512-.282 1.88-.574 3.824.363 5.443.952 1.645 2.798 2.366 4.583 3.063 1.09.426 1.482 1.691.896 2.705L3.417 67.613a1.507 1.507 0 001.354 2.26 11.983 11.983 0 0110.965 6.33 1.507 1.507 0 002.634.044l6.008-10.406c.925-1.603 2.8-2.173 4.244-1.016 1.442 1.155 3.076 2.464 5.022 2.464 1.947 0 3.58-1.309 5.022-2.464 1.444-1.157 3.32-.587 4.245 1.016l.156.27a1.128 1.128 0 101.953-1.129c-.475-.822.189-1.794 1.131-1.675 1.514.19 3.02.23 4.32-.522 1.645-.952 2.365-2.798 3.063-4.583.4-1.024 1.684-1.066 2.234-.114l2.19 3.792c1.432 2.481-.42 5.57-3.284 5.476a1.494 1.494 0 00-1.378.796l-.847 1.586c-.981 1.836-3.598 1.88-4.64.076a1.128 1.128 0 00-1.953 1.128l3.063 5.305a1.507 1.507 0 002.634-.044 11.983 11.983 0 0110.965-6.33 1.507 1.507 0 001.355-2.259l-6.568-11.375c-.585-1.013-.194-2.279.897-2.705 1.785-.697 3.631-1.418 4.583-3.063.937-1.62.645-3.563.363-5.442-.198-1.316-.385-2.56-.13-3.513.239-.892 1-1.843 1.807-2.85zM20.088 68.76c-1.307 2.262-4.59 2.208-5.822-.096l-.273-.512c-.272-.51-.8-.817-1.378-.796-2.864.095-4.716-2.994-3.284-5.476l2.19-3.792c.55-.952 1.834-.91 2.234.114.697 1.785 1.418 3.632 3.063 4.583l.062.035c2.399 1.336 4.58 3.562 3.208 5.94zm40.75-27.827c-.375 1.407-.144 2.944.079 4.43.235 1.565.457 3.043-.085 3.979-.555.96-1.962 1.51-3.45 2.09-3.757 1.468-4.477 2.18-5.95 5.95-.58 1.489-1.13 2.895-2.09 3.45-.936.542-2.414.32-3.979.085-4.094-.615-5.051-.3-8.107 2.148-1.264 1.012-2.457 1.968-3.611 1.968-1.155 0-2.348-.956-3.612-1.968-3.067-2.458-4.027-2.761-8.107-2.148-1.565.235-3.042.457-3.978-.084-.961-.556-1.51-1.962-2.092-3.451-1.467-3.758-2.177-4.476-5.949-5.95-1.489-.58-2.895-1.13-3.45-2.09-.542-.936-.32-2.414-.085-3.978.223-1.486.454-3.023.078-4.43-.36-1.35-1.309-2.534-2.226-3.678-1.012-1.263-1.968-2.457-1.968-3.611 0-1.155.956-2.348 1.968-3.612.917-1.144 1.865-2.327 2.226-3.677.376-1.407.145-2.944-.078-4.43-.235-1.565-.457-3.042.085-3.978.555-.96 1.962-1.51 3.45-2.091 1.388-.542 2.822-1.102 3.835-2.115 1.012-1.012 1.573-2.447 2.114-3.835.582-1.488 1.13-2.894 2.092-3.45.936-.542 2.413-.32 3.978-.085 1.486.224 3.023.455 4.43.079 1.35-.361 2.533-1.31 3.677-2.226 1.264-1.013 2.457-1.97 3.611-1.97 1.155 0 2.348.957 3.612 1.97 1.144.916 2.327 1.864 3.677 2.225 1.407.376 2.944.146 4.43-.078 1.565-.235 3.043-.457 3.978.085.961.556 1.51 1.962 2.092 3.45.541 1.388 1.102 2.823 2.114 3.835 1.013 1.012 2.447 1.573 3.835 2.115 1.488.58 2.895 1.13 3.45 2.09.542.937.32 2.414.085 3.979-.223 1.486-.454 3.023-.078 4.43.36 1.35 1.309 2.533 2.226 3.677 1.012 1.264 1.968 2.457 1.968 3.612 0 1.154-.956 2.347-1.968 3.61-.917 1.145-1.865 2.328-2.226 3.678z" fill="url(#paint0_linear)"/><path d="M59.059 32.517h-.232c-1.491 0-2.7-1.175-2.948-2.645a1.127 1.127 0 10-2.225.375 20.5 20.5 0 01.283 3.398c0 11.19-9.103 20.293-20.293 20.293s-20.293-9.104-20.293-20.293c0-11.19 9.104-20.294 20.294-20.294a20.254 20.254 0 0110.194 2.746 20.296 20.296 0 017.333 7.312c.03.064.063.119.101.174.358.627.686 1.278.98 1.95a1.128 1.128 0 002.067-.902c-.316-.723-.067-1.582.617-1.977l1.281-.74a1.128 1.128 0 00-1.128-1.954c-1.402.81-3.176.361-4.221-.875a22.547 22.547 0 00-2.664-2.662c-1.238-1.045-1.687-2.821-.877-4.224a1.128 1.128 0 00-1.953-1.128c-.81 1.403-2.573 1.902-4.098 1.354a22.518 22.518 0 00-3.632-.973c-1.595-.287-2.873-1.601-2.873-3.222a1.128 1.128 0 10-2.255 0c0 1.62-1.278 2.934-2.874 3.22a22.35 22.35 0 00-3.627.974c-1.526.55-3.291.052-4.102-1.353A1.128 1.128 0 1019.96 12.2c.813 1.408.364 3.19-.875 4.24a22.747 22.747 0 00-2.646 2.646c-1.05 1.24-2.832 1.688-4.24.876a1.128 1.128 0 10-1.128 1.953c1.405.811 1.903 2.576 1.353 4.102a22.354 22.354 0 00-.973 3.628c-.287 1.595-1.6 2.873-3.22 2.873a1.128 1.128 0 100 2.256c1.62 0 2.933 1.277 3.22 2.872.224 1.248.552 2.46.973 3.628.55 1.526.052 3.291-1.353 4.102a1.128 1.128 0 101.128 1.953c1.408-.812 3.19-.363 4.24.877a22.756 22.756 0 002.646 2.645c1.24 1.05 1.688 2.833.876 4.24a1.128 1.128 0 101.953 1.128c.811-1.404 2.576-1.903 4.102-1.353 1.168.422 2.38.749 3.628.973 1.595.287 2.873 1.6 2.873 3.221a1.128 1.128 0 102.255 0c0-1.62 1.278-2.934 2.873-3.22a22.345 22.345 0 003.628-.974c1.526-.55 3.291-.051 4.102 1.353a1.128 1.128 0 101.953-1.128c-.812-1.408-.364-3.19.876-4.24a22.756 22.756 0 002.646-2.646c1.05-1.24 2.832-1.688 4.24-.876a1.128 1.128 0 001.128-1.953c-1.405-.811-1.903-2.576-1.353-4.102.421-1.168.749-2.38.973-3.628.287-1.595 1.6-2.873 3.221-2.873a1.128 1.128 0 100-2.255z" fill="url(#paint1_linear)"/><path d="M48.948 28.584a2.059 2.059 0 00-1.963-1.426 11.963 11.963 0 01-11.377-8.266 2.059 2.059 0 00-1.963-1.426c-.897 0-1.686.573-1.963 1.426l-2 6.153a3.057 3.057 0 01-2.907 2.113 1.128 1.128 0 100 2.256h2.36c.897 0 1.686-.573 1.963-1.426.802-2.467 4.291-2.467 5.093 0a2.059 2.059 0 001.963 1.426c2.594 0 3.672 3.319 1.574 4.843a2.059 2.059 0 00-.75 2.308c.801 2.467-2.022 4.518-4.12 2.993a2.058 2.058 0 00-2.427 0c-2.098 1.525-4.921-.526-4.12-2.993a2.059 2.059 0 00-.75-2.308l-6.168-4.481a.2.2 0 01.118-.362 1.128 1.128 0 100-2.256h-1.207a2.06 2.06 0 00-1.963 1.426c-.277.853.024 1.78.75 2.307a11.963 11.963 0 014.346 13.375 2.06 2.06 0 00.75 2.308 2.059 2.059 0 002.426 0 11.963 11.963 0 0114.063 0 2.06 2.06 0 002.426 0 2.059 2.059 0 00.75-2.307 11.963 11.963 0 014.346-13.375 2.058 2.058 0 00.75-2.308z" fill="url(#paint2_linear)"/><defs><linearGradient id="paint0_linear" x1="35.401" y1="0" x2="35.401" y2="80.983" gradientUnits="userSpaceOnUse"><stop stop-color="#F0B403"/><stop offset="1" stop-color="#F27E14"/></linearGradient><linearGradient id="paint1_linear" x1="35.401" y1="0" x2="35.401" y2="80.983" gradientUnits="userSpaceOnUse"><stop stop-color="#F0B403"/><stop offset="1" stop-color="#F27E14"/></linearGradient><linearGradient id="paint2_linear" x1="35.401" y1="0" x2="35.401" y2="80.983" gradientUnits="userSpaceOnUse"><stop stop-color="#F0B403"/><stop offset="1" stop-color="#F27E14"/></linearGradient></defs></svg>