
<svg width="58" height="77" fill="none" xmlns="http://www.w3.org/2000/svg"><path d="M55.883 27.236c.623 0 1.128-.504 1.128-1.128v-12.67c0-.568-.335-1.083-.854-1.313L29.087.123a1.436 1.436 0 00-1.163 0L.854 12.125c-.52.23-.854.745-.854 1.312v23.43A42.478 42.478 0 007.645 61.24a42.477 42.477 0 0020.196 15.64c.429.16.9.16 1.329 0a42.478 42.478 0 0020.196-15.64 42.478 42.478 0 007.645-24.373v-5.495a1.128 1.128 0 10-2.256 0v5.495c0 15.268-8.732 29.226-22.139 36.046a9.07 9.07 0 01-8.22 0c-13.41-6.819-22.14-20.777-22.14-36.046v-15.09a12 12 0 017.136-10.97l14.25-6.318a12 12 0 019.727 0l14.25 6.318a12 12 0 017.136 10.97v4.331c0 .624.505 1.128 1.128 1.128z" fill="url(#paint0_linear)"/><path d="M34.257 37.758c.44.44 1.154.44 1.595 0l3.77-3.771a1.792 1.792 0 000-2.532l-3.052-3.052a1.792 1.792 0 00-2.531 0l-4.657 4.656a5.23 5.23 0 01-7.395 0 1.792 1.792 0 00-2.531 0l-3.053 3.053a1.792 1.792 0 000 2.531l8.016 8.016a1.792 1.792 0 002.532 0l5.113-5.113a1.128 1.128 0 00-1.595-1.595l-1.106 1.105a5.202 5.202 0 01-7.357 0l-2.482-2.482a1.693 1.693 0 012.394-2.393l2.501 2.5a1.792 1.792 0 002.532 0l7.156-7.157a1.693 1.693 0 112.394 2.394l-2.245 2.245c-.44.44-.44 1.154 0 1.595z" fill="url(#paint1_linear)"/><path d="M28.505 72.44c.623 0 1.128-.505 1.128-1.128v-4.959c0-6.34 5.426-11.325 10.33-15.343 4.055-3.323 6.646-8.368 6.646-14.007 0-5.64-2.591-10.685-6.646-14.008-4.904-4.018-10.33-9.003-10.33-15.343V5.666a1.128 1.128 0 10-2.256 0v5.722c0 4.242-3.457 7.588-7.22 9.546a1.128 1.128 0 101.042 2.001c.309-.16.621-.31.937-.45 2.685-1.183 5.241 1.2 5.241 4.134a1.128 1.128 0 102.256 0c0-2.932 2.558-5.31 5.241-4.128 5.577 2.457 9.48 8.037 9.48 14.511 0 7.432-5.143 13.686-12.056 15.39-1.417.35-2.665-.822-2.665-2.28a1.128 1.128 0 10-2.256 0c0 1.458-1.247 2.63-2.664 2.28-6.913-1.704-12.056-7.958-12.056-15.39 0-4.178 1.612-8.12 4.539-11.102a1.128 1.128 0 10-1.61-1.58 18.001 18.001 0 00-5.184 12.683c0 5.639 2.591 10.684 6.646 14.007 4.904 4.018 10.33 9.003 10.33 15.343v4.959c0 .623.505 1.128 1.127 1.128z" fill="url(#paint2_linear)"/><defs><linearGradient id="paint0_linear" x1="29.994" y1="0" x2="29.994" y2="80.983" gradientUnits="userSpaceOnUse"><stop stop-color="#F0B403"/><stop offset="1" stop-color="#F27E14"/></linearGradient><linearGradient id="paint1_linear" x1="29.994" y1="0" x2="29.994" y2="80.983" gradientUnits="userSpaceOnUse"><stop stop-color="#F0B403"/><stop offset="1" stop-color="#F27E14"/></linearGradient><linearGradient id="paint2_linear" x1="29.994" y1="0" x2="29.994" y2="80.983" gradientUnits="userSpaceOnUse"><stop stop-color="#F0B403"/><stop offset="1" stop-color="#F27E14"/></linearGradient></defs></svg>