
<svg width="86" height="77" fill="none" xmlns="http://www.w3.org/2000/svg"><path d="M80.092 0H5.839A5.847 5.847 0 000 5.84v49.869c0 3.22 2.62 5.839 5.84 5.839h11.298a1.259 1.259 0 100-2.518H5.839a3.325 3.325 0 01-3.321-3.322 6.748 6.748 0 016.748-6.748h67.4a6.748 6.748 0 016.748 6.748 3.325 3.325 0 01-3.322 3.322h-57.08a1.259 1.259 0 100 2.518h4.361c2.78 0 4.762 2.708 3.955 5.368a4.105 4.105 0 01-3.916 2.914 1.845 1.845 0 00-1.843 1.843v3.483c0 1.017.827 1.844 1.843 1.844h31.106a1.846 1.846 0 001.844-1.844v-3.483a1.846 1.846 0 00-1.844-1.843 4.105 4.105 0 01-3.915-2.914c-.808-2.66 1.175-5.368 3.955-5.368h21.534c3.22 0 5.839-2.62 5.839-5.84V5.84c0-3.22-2.62-5.839-5.839-5.839zM57.845 73.415c0 .59-.478 1.067-1.068 1.067H29.154c-.59 0-1.067-.478-1.067-1.067 0-.59.47-1.068 1.06-1.068H56.79c.59 0 1.054.478 1.054 1.068zm-6.61-8.93c.807 2.66-1.184 5.345-3.963 5.345H38.66c-2.78 0-4.77-2.684-3.963-5.344a4.141 4.141 0 013.962-2.938h8.613a4.141 4.141 0 013.962 2.938zM21.574 6.715a4.055 4.055 0 014.056 4.054 2.317 2.317 0 01-2.315 2.315h-3.57a2.318 2.318 0 01-2.315-2.315 4.055 4.055 0 014.055-4.054h.09zm-6.662 4.054a2.317 2.317 0 01-2.315 2.315h-3.57a2.317 2.317 0 01-2.315-2.315 4.055 4.055 0 014.055-4.054h.09a4.055 4.055 0 014.055 4.054zm-8.2 6.656c0-1.087 1.228-1.823 2.315-1.823h67.874c1.087 0 2.315.736 2.315 1.823V43.22a3.223 3.223 0 01-3.223 3.224H74.58c-1 0-1.81-.811-1.81-1.81a1.259 1.259 0 10-2.518 0v.365a1.445 1.445 0 11-2.889 0v-4.077a1.259 1.259 0 10-2.517 0v4.077a1.444 1.444 0 11-2.89 0v-4.84a4.148 4.148 0 014.149-4.147h1.4a2.747 2.747 0 012.747 2.747 1.259 1.259 0 102.518 0v-3.243a2.024 2.024 0 00-2.022-2.022h-3.13a2.59 2.59 0 01-2.59-2.59c0-7.05-5.735-12.785-12.785-12.785h-14.52c-7.05 0-12.785 5.736-12.785 12.786a2.59 2.59 0 01-2.59 2.59h-6.836a2.024 2.024 0 00-2.022 2.02v7.54a3.389 3.389 0 11-6.778 0v-25.63zM43.01 6.715a4.055 4.055 0 014.055 4.054 2.318 2.318 0 01-2.315 2.315h-3.57a2.318 2.318 0 01-2.315-2.315 4.055 4.055 0 014.055-4.054h.09zm10.717 0a4.055 4.055 0 014.055 4.054 2.318 2.318 0 01-2.315 2.315h-3.57a2.318 2.318 0 01-2.315-2.315 4.055 4.055 0 014.055-4.054h.09zm10.717 0a4.055 4.055 0 014.055 4.054 2.318 2.318 0 01-2.314 2.315h-3.57a2.317 2.317 0 01-2.315-2.315 4.055 4.055 0 014.055-4.054h.09zm10.718 0a4.055 4.055 0 014.055 4.054 2.318 2.318 0 01-2.315 2.315h-3.57a2.317 2.317 0 01-2.315-2.315 4.055 4.055 0 014.055-4.054h.09zM62.512 32.62a.875.875 0 01-1.75 0v-1.715c0-4.698-3.821-8.52-8.518-8.52a8.531 8.531 0 00-3.472.744.939.939 0 01-1.11-.258c-.334-.414-.25-1.042.234-1.268a10.295 10.295 0 014.348-.966c5.661 0 10.268 4.606 10.268 10.268v1.715zM50.28 28.48c-.32-1.66.275-3.579 1.965-3.579a6.008 6.008 0 016.001 6.002 2.59 2.59 0 01-2.59 2.59H53.1a2.59 2.59 0 01-2.59-2.59 12.9 12.9 0 00-.23-2.423zm-2.288 2.423v7.883a.876.876 0 01-1.749 0v-7.883c0-2.622-1.21-4.987-3.102-6.556a1.258 1.258 0 00-.288-.229c-3.292-2.502-7.95-2.326-11.038.71a8.756 8.756 0 00-2.61 6.203v7.754a.876.876 0 01-1.749 0v-7.883c0-5.661 4.607-10.267 10.268-10.267 5.662 0 10.268 4.606 10.268 10.268zm-13.808 2.59a2.46 2.46 0 01-2.46-2.462c0-1.641.676-3.248 1.856-4.408 1.156-1.137 2.664-1.75 4.249-1.72 1.63.027 2.202 1.88 1.881 3.477-.166.828-.25 1.673-.25 2.523a2.59 2.59 0 01-2.59 2.59h-2.686zm7.793-2.59c0-1.516 1.703-1.686 1.746-.17.002.056.003.113.003.17v1.715a.874.874 0 11-1.75 0v-1.715zM28.33 42.179a3.396 3.396 0 003.392-3.392A2.776 2.776 0 0134.5 36.01h6.451a2.776 2.776 0 012.776 2.776 3.396 3.396 0 003.392 3.392 3.396 3.396 0 003.392-3.392 2.776 2.776 0 012.776-2.776h1.69c2.466 0 4.465 2 4.465 4.465v.75a5.216 5.216 0 01-5.216 5.217h-33a5.216 5.216 0 01-5.217-5.216v-.75c0-2.467 2-4.466 4.466-4.466h1.69a2.776 2.776 0 012.775 2.776 3.396 3.396 0 003.392 3.392zm54.243 4.264a.84.84 0 01-.839-.84V5.84c0-.906-.737-1.643-1.643-1.643H34.695a1.259 1.259 0 100 2.518c.913 0 1.653.74 1.653 1.653v2.401a2.318 2.318 0 01-2.315 2.315h-3.57a2.318 2.318 0 01-2.315-2.315V7.386c0-.371.301-.672.673-.672a1.259 1.259 0 100-2.518H5.839c-.906 0-1.643.737-1.643 1.643v39.764a.84.84 0 11-1.678 0V5.84a3.325 3.325 0 013.321-3.321h74.253a3.325 3.325 0 013.322 3.321v39.764a.84.84 0 01-.84.84z" fill="url(#paint0_linear)"/><path d="M46.362 53.995a3.4 3.4 0 00-3.396-3.396 3.4 3.4 0 00-3.397 3.396 3.4 3.4 0 003.397 3.396 3.4 3.4 0 003.396-3.396zm-4.275 0a.88.88 0 011.757 0 .88.88 0 01-1.757 0z" fill="url(#paint1_linear)"/><defs><linearGradient id="paint0_linear" x1="45.209" y1="0" x2="45.209" y2="80.983" gradientUnits="userSpaceOnUse"><stop stop-color="#F0B403"/><stop offset="1" stop-color="#F27E14"/></linearGradient><linearGradient id="paint1_linear" x1="45.209" y1="0" x2="45.209" y2="80.983" gradientUnits="userSpaceOnUse"><stop stop-color="#F0B403"/><stop offset="1" stop-color="#F27E14"/></linearGradient></defs></svg>