
<svg width="93" height="77" fill="none" xmlns="http://www.w3.org/2000/svg"><path d="M89.553 15.93h-.276c-1.743 0-3.395-1.466-5.137-1.466h-5.565c-3.665 0-7.333.234-10.971.7-3.315.423-6.381-2.07-6.381-5.412a2.43 2.43 0 00-1.215-2.104L47.324.325a2.435 2.435 0 00-2.43 0L32.21 7.648a2.43 2.43 0 00-1.216 2.104c0 3.342-3.066 5.835-6.38 5.411a86.623 86.623 0 00-10.971-.699H8.078c-1.743 0-3.395 1.466-5.137 1.466h-.276A2.668 2.668 0 000 18.595v48.634a2.668 2.668 0 002.665 2.665h6.357c20.027 0 34.68 6.569 35.5 6.806a4.35 4.35 0 003.174 0c.825-.239 15.114-6.806 35.5-6.806h6.357a2.668 2.668 0 002.665-2.665V18.595a2.668 2.668 0 00-2.665-2.665zm-58.608 9.49c.197.045.359.18.472.346.203.298.472.552.793.737l4.345 2.51a3.798 3.798 0 011.899 3.288c0 2.502-2.377 4.319-4.823 3.792a96.364 96.364 0 00-.232-.05c-1.89-.402-3.279-2.046-3.279-3.978v-5.984c0-.434.402-.758.825-.66zm5.517.419a5.53 5.53 0 01-2.766-4.79c0-4.258 4.61-6.919 8.297-4.79a5.531 5.531 0 012.765 4.79c0 4.257-4.609 6.918-8.296 4.79zm10.998-4.79a5.53 5.53 0 012.765-4.79c3.687-2.129 8.296.532 8.296 4.79a5.53 5.53 0 01-2.765 4.79c-3.687 2.129-8.296-.533-8.296-4.79zM53.764 32.3c0-1.357.723-2.61 1.898-3.289l4.346-2.509c.321-.185.59-.44.793-.737a.801.801 0 01.471-.346.676.676 0 01.825.661v5.984c0 1.932-1.389 3.576-3.278 3.978l-.233.05c-2.445.527-4.822-1.29-4.822-3.792zM43.344 4.34a5.53 5.53 0 015.53 0c3.687 2.128 3.687 7.45 0 9.58a5.53 5.53 0 01-5.53 0c-3.688-2.13-3.688-7.452 0-9.58zm4.116 62.93c0-.355.218-.674.549-.804a83.504 83.504 0 0130.566-5.77h4.284a1.08 1.08 0 010 2.16h-4.284a86.154 86.154 0 00-29.864 5.317.928.928 0 01-1.251-.866v-.036zm-2.702.037a.929.929 0 01-1.251.865 86.155 86.155 0 00-29.864-5.316H9.36a1.08 1.08 0 110-2.16h4.284a83.501 83.501 0 0130.566 5.77c.331.13.549.449.549.805v.036zm-35.736-.115a6.32 6.32 0 01-6.32-6.32V20.069a1.437 1.437 0 112.874 0v42.988a2.504 2.504 0 002.502 2.501h5.565a83.5 83.5 0 0130.566 5.77c.33.13.549.45.549.806v.157c0 .77-.774 1.3-1.497 1.033a98.238 98.238 0 00-34.239-6.132zm80.494-6.32a6.32 6.32 0 01-6.32 6.32 98.23 98.23 0 00-34.24 6.132 1.109 1.109 0 01-1.496-1.033v-.157c0-.356.218-.675.55-.805a83.5 83.5 0 0130.565-5.77h5.565a2.504 2.504 0 002.501-2.502v-8.326a1.35 1.35 0 10-2.702 0 3.262 3.262 0 01-3.261 3.262h-2.103c-4.813 0-9.581.395-14.279 1.18-8.31 1.389-16.836-4.453-16.836-12.878v-2.141a1.35 1.35 0 10-2.702 0v2.142c0 8.425-8.527 14.266-16.836 12.878a86.56 86.56 0 00-14.279-1.18 5.365 5.365 0 01-5.365-5.365V22.53a5.365 5.365 0 015.365-5.365c5.339 0 10.686.513 15.93 1.527.83.161 1.422.893 1.422 1.739v.689c0 .79-.732 1.378-1.508 1.221a1.73 1.73 0 00-2.068 1.695v12.19a1.72 1.72 0 001.442 1.703 92.06 92.06 0 0110.093 2.278 1.736 1.736 0 001.515-.281c.43-.325.687-.84.687-1.378v-3.761a1.801 1.801 0 113.602 0v3.062a1.35 1.35 0 102.701 0v-3.062a1.802 1.802 0 013.603 0v3.76c0 .54.256 1.055.686 1.379.428.322.995.43 1.515.281a92.01 92.01 0 0110.093-2.278 1.72 1.72 0 001.443-1.702v-12.19c0-1.093-1-1.91-2.07-1.695a1.254 1.254 0 01-1.506-1.221v-.69c0-.846.591-1.578 1.422-1.738a83.982 83.982 0 0115.93-1.528 5.365 5.365 0 015.364 5.364v25.898a1.35 1.35 0 102.702 0v-28.36a1.438 1.438 0 012.875 0v40.804z" fill="url(#paint0_linear)"/><path d="M39.93 42.374a90.341 90.341 0 00-10.483-2.515 1.729 1.729 0 00-2.028 1.703v12.414c0 .843.603 1.559 1.435 1.701a89.906 89.906 0 0110.09 2.334c.512.15 1.082.054 1.521-.275.432-.324.69-.84.69-1.381V44.028c0-.767-.492-1.431-1.225-1.654zm-1.476 7.459c0 2.628-2.51 4.532-5.079 3.972-1.88-.41-3.255-2.047-3.255-3.97v-1.803c0-2.75 2.506-4.828 5.172-4.148 1.883.48 3.162 2.202 3.162 4.145v1.804z" fill="url(#paint1_linear)"/><path d="M24.114 21.45a80.797 80.797 0 00-10.506-.682 1.73 1.73 0 00-1.727 1.728v3.578a1.35 1.35 0 102.701 0c0-1.43 1.169-2.589 2.597-2.524a78.71 78.71 0 011.851.106c2.222.153 3.886 2.042 3.886 4.27v2.1c0 2.357-2.03 4.193-4.384 4.073a96.21 96.21 0 00-2.348-.09 1.639 1.639 0 01-1.602-1.631 1.35 1.35 0 10-2.701 0v2.574c0 .955.773 1.726 1.726 1.726h.063c3.353 0 6.728.182 10.034.542a1.73 1.73 0 001.914-1.716v-12.34c0-.865-.647-1.602-1.504-1.714z" fill="url(#paint2_linear)"/><path d="M24.087 39.076a91.935 91.935 0 00-10.48-.597 1.73 1.73 0 00-1.727 1.73v12.455a1.73 1.73 0 001.728 1.727c3.341 0 6.715.181 10.09.558a1.728 1.728 0 001.919-1.715v-12.44c0-.879-.657-1.617-1.53-1.718zm-1.171 8.67c0 2.359-2.03 4.194-4.385 4.072-2.183-.114-3.949-1.884-3.949-4.07v-2.147c0-2.431 1.994-4.406 4.42-4.26 2.233.135 3.914 2.022 3.914 4.258v2.148z" fill="url(#paint3_linear)"/><path d="M62.77 39.86a90.28 90.28 0 00-10.481 2.514 1.719 1.719 0 00-1.227 1.654v12.327c0 .54.258 1.057.69 1.381.427.32.994.43 1.523.275a89.933 89.933 0 0110.09-2.334 1.722 1.722 0 001.434-1.7V41.561c0-1.073-.97-1.89-2.03-1.702zm-.673 9.975c0 1.923-1.375 3.56-3.254 3.97-2.569.56-5.08-1.344-5.08-3.972V48.03c0-1.944 1.28-3.666 3.162-4.146 2.666-.68 5.172 1.397 5.172 4.148v1.803z" fill="url(#paint4_linear)"/><path d="M78.61 20.768c-3.539 0-7.05.228-10.507.681a1.733 1.733 0 00-1.503 1.715v12.34a1.728 1.728 0 001.914 1.716c3.305-.36 6.68-.542 10.033-.542h.063a1.724 1.724 0 001.727-1.726V22.496a1.73 1.73 0 00-1.727-1.728zm-.975 9.26c0 2.189-1.77 3.96-3.956 4.072-2.353.119-4.377-1.717-4.377-4.073v-2.102c0-2.227 1.657-4.115 3.879-4.269 2.444-.168 4.454 1.822 4.454 4.272v2.1z" fill="url(#paint5_linear)"/><path d="M78.61 38.479c-3.665 0-7.15.212-10.48.597-.872.1-1.53.839-1.53 1.717v12.44a1.728 1.728 0 001.919 1.716c3.328-.372 6.7-.558 10.09-.558a1.73 1.73 0 001.728-1.728V40.208c0-.953-.775-1.728-1.727-1.73zm-.975 9.27c0 2.185-1.766 3.954-3.949 4.068-2.354.123-4.384-1.713-4.384-4.07v-2.148c0-2.236 1.68-4.123 3.912-4.258 2.428-.146 4.421 1.829 4.421 4.26v2.147z" fill="url(#paint6_linear)"/><path d="M52.51 20.139l2.652-1.53a1.35 1.35 0 10-1.351-2.34l-2.652 1.53a1.35 1.35 0 101.351 2.34z" fill="url(#paint7_linear)"/><defs><linearGradient id="paint0_linear" x1="48.517" y1="0" x2="48.517" y2="80.983" gradientUnits="userSpaceOnUse"><stop stop-color="#F0B403"/><stop offset="1" stop-color="#F27E14"/></linearGradient><linearGradient id="paint1_linear" x1="48.517" y1="0" x2="48.517" y2="80.983" gradientUnits="userSpaceOnUse"><stop stop-color="#F0B403"/><stop offset="1" stop-color="#F27E14"/></linearGradient><linearGradient id="paint2_linear" x1="48.517" y1="0" x2="48.517" y2="80.983" gradientUnits="userSpaceOnUse"><stop stop-color="#F0B403"/><stop offset="1" stop-color="#F27E14"/></linearGradient><linearGradient id="paint3_linear" x1="48.517" y1="0" x2="48.517" y2="80.983" gradientUnits="userSpaceOnUse"><stop stop-color="#F0B403"/><stop offset="1" stop-color="#F27E14"/></linearGradient><linearGradient id="paint4_linear" x1="48.517" y1="0" x2="48.517" y2="80.983" gradientUnits="userSpaceOnUse"><stop stop-color="#F0B403"/><stop offset="1" stop-color="#F27E14"/></linearGradient><linearGradient id="paint5_linear" x1="48.517" y1="0" x2="48.517" y2="80.983" gradientUnits="userSpaceOnUse"><stop stop-color="#F0B403"/><stop offset="1" stop-color="#F27E14"/></linearGradient><linearGradient id="paint6_linear" x1="48.517" y1="0" x2="48.517" y2="80.983" gradientUnits="userSpaceOnUse"><stop stop-color="#F0B403"/><stop offset="1" stop-color="#F27E14"/></linearGradient><linearGradient id="paint7_linear" x1="48.517" y1="0" x2="48.517" y2="80.983" gradientUnits="userSpaceOnUse"><stop stop-color="#F0B403"/><stop offset="1" stop-color="#F27E14"/></linearGradient></defs></svg>