<svg width="16" height="16" viewBox="0 0 16 16" fill="none" xmlns="http://www.w3.org/2000/svg">
<path d="M12.1644 10.5843C11.6416 10.0682 10.989 10.0682 10.4696 10.5843C10.0734 10.9772 9.6772 11.3701 9.28765 11.7696C9.1811 11.8795 9.0912 11.9028 8.96135 11.8295C8.70498 11.6897 8.43196 11.5765 8.18557 11.4233C7.03689 10.7008 6.07466 9.77193 5.2223 8.72648C4.79945 8.20709 4.42321 7.65107 4.16018 7.02513C4.10691 6.89861 4.1169 6.81538 4.22011 6.71217C4.61633 6.32928 5.00255 5.9364 5.3921 5.54353C5.93482 4.9975 5.93482 4.35825 5.38878 3.80889C5.07913 3.49592 4.76948 3.18961 4.45984 2.87664C4.1402 2.55702 3.8239 2.23406 3.50094 1.91776C2.9782 1.40836 2.32561 1.40836 1.80621 1.92109C1.40667 2.31397 1.02377 2.71683 0.617569 3.10304C0.241333 3.4593 0.0515498 3.89545 0.0115955 4.40486C-0.0516655 5.23389 0.151435 6.01631 0.437774 6.77876C1.02377 8.35691 1.91608 9.75861 2.99818 11.0438C4.45984 12.7817 6.20451 14.1568 8.24551 15.149C9.16446 15.5951 10.1167 15.9381 11.1522 15.9947C11.8647 16.0346 12.484 15.8548 12.9801 15.2988C13.3197 14.9193 13.7026 14.573 14.0622 14.2101C14.5949 13.6707 14.5982 13.0181 14.0688 12.4854C13.4362 11.8495 12.8003 11.2169 12.1644 10.5843Z" fill="#F1A10A"/>
<path d="M11.5284 7.93074L12.757 7.72099C12.5639 6.59231 12.0312 5.57017 11.2221 4.75778C10.3664 3.90211 9.28432 3.36274 8.09235 3.19627L7.91922 4.43149C8.84149 4.56134 9.68053 4.97752 10.3431 5.64008C10.9691 6.26602 11.3786 7.05843 11.5284 7.93074Z" fill="#F1A10A"/>
<path d="M13.4496 2.59031C12.0312 1.17197 10.2366 0.276344 8.25553 0L8.08239 1.23522C9.79377 1.47495 11.3453 2.25071 12.5706 3.47261C13.7326 4.63459 14.4951 6.10288 14.7714 7.71766L16 7.5079C15.677 5.63675 14.7947 3.93874 13.4496 2.59031Z" fill="#F1A10A"/>
</svg>
