<svg width="14" height="10" viewBox="0 0 14 10" fill="none" xmlns="http://www.w3.org/2000/svg">
<path d="M1.19689 0H12.8031C13.4224 0.000827769 13.9391 0.460929 13.995 1.06161L7.77611 6.19764C7.33039 6.56779 6.67457 6.56807 6.22857 6.1982L0.00481732 1.06644C0.058088 0.463826 0.575636 0.000827769 1.19689 0ZM1.19689 10C0.93493 10.0003 0.680194 9.9164 0.472211 9.76133L3.94317 6.30415C4.00749 6.2411 4.03214 6.14936 4.00777 6.06382C3.9834 5.97815 3.91384 5.91193 3.82543 5.89013C3.73688 5.86833 3.64324 5.8944 3.58005 5.95856L0.141394 9.38345C0.048454 9.21472 -0.000141369 9.02613 3.08903e-07 8.8345V1.71045L5.90044 6.57566C6.53572 7.10226 7.46966 7.10198 8.10452 6.57469L14 1.70576V8.8345C14.0003 9.02682 13.9513 9.2161 13.8576 9.38524L10.3984 5.958C10.3 5.86143 10.14 5.86047 10.0403 5.9558C9.94066 6.05127 9.93881 6.20702 10.0363 6.30456L13.5264 9.76243C13.3185 9.91681 13.0645 10.0003 12.8031 10H1.19689Z" fill="#F1A10A"/>
</svg>
