<svg width="13" height="17" viewBox="0 0 13 17" fill="none" xmlns="http://www.w3.org/2000/svg">
<path d="M6.5 0C2.916 0 0 2.90461 0 6.47461C0 7.8874 0.448 9.2298 1.29667 10.3561L6.09933 16.7992C6.11133 16.8148 6.12967 16.8207 6.143 16.8347C6.383 17.0907 6.72933 17.0263 6.90033 16.7992C8.28333 14.961 10.8183 11.5281 11.793 10.2332L11.7937 10.2315L11.7997 10.2236C12.585 9.12455 13 7.8283 13 6.47461C13 2.90461 10.084 0 6.5 0ZM6.5 9.96758C4.57033 9.96758 2.99333 8.39674 2.99333 6.47461C2.99333 4.55248 4.57033 2.98164 6.5 2.98164C8.42967 2.98164 10.0067 4.55248 10.0067 6.47461C10.0067 8.39674 8.42967 9.96758 6.5 9.96758Z" fill="#F1A10A"/>
</svg>
