<svg width="51" height="55" viewBox="0 0 51 55" fill="none" xmlns="http://www.w3.org/2000/svg">
<path d="M50.3368 19.589V16.2664C50.3368 16.2434 50.3355 16.2203 50.3334 16.1976C50.333 16.1943 50.3334 16.1905 50.333 16.1867C50.3301 16.1557 50.3251 16.1255 50.3188 16.0961C50.3175 16.091 50.3162 16.086 50.315 16.0814C50.3091 16.0566 50.302 16.0319 50.294 16.008C50.2932 16.005 50.2923 16.0021 50.2915 15.9991L47.5594 8.22029C47.5048 8.06503 47.4301 7.92194 47.3399 7.7906C47.3403 7.78011 47.3416 7.77004 47.3416 7.75913V2.85633C47.3416 1.28151 46.0601 0 44.4852 0H5.85197C4.27673 0 2.99564 1.28151 2.99564 2.85633V7.75913C2.99564 7.76962 2.9969 7.78011 2.99732 7.7906C2.90668 7.92152 2.83199 8.06503 2.77744 8.22029L0.0453186 15.9991C0.0444793 16.0021 0.0440597 16.005 0.042801 16.008C0.0348282 16.0319 0.0281143 16.0562 0.0222397 16.0806C0.0209808 16.0856 0.0193024 16.091 0.0180435 16.0961C0.0117493 16.1255 0.00713346 16.1557 0.00377652 16.1863C0.00335693 16.1905 0.00377652 16.1951 0.00335693 16.1993C0.00125888 16.2215 0 16.2438 0 16.266V19.589C0 21.75 1.21395 23.6324 2.99564 24.5916V46.9446H2.10983C0.946655 46.9446 0 47.8909 0 49.0545V52.8897C0 54.0533 0.946655 55 2.10983 55H48.227C49.3906 55 50.3368 54.0533 50.3368 52.8897V49.0545C50.3368 47.8909 49.3906 46.9446 48.227 46.9446H47.3416V24.5921C49.1228 23.6328 50.3368 21.75 50.3368 19.589ZM44.659 23.6559C42.4161 23.6559 40.592 21.8314 40.592 19.589V17.0721H48.7259V19.589C48.7255 21.8314 46.9014 23.6559 44.659 23.6559ZM11.3565 17.0721H14.2166C14.6618 17.0721 15.0223 16.7112 15.0223 16.2664C15.0223 15.8212 14.6618 15.4608 14.2166 15.4608H11.5466L13.0111 8.60592H20.0262L19.5449 15.4608H17.2244C16.7796 15.4608 16.4188 15.8212 16.4188 16.2664C16.4188 16.7112 16.7796 17.0721 17.2244 17.0721H19.4904V19.5894C19.4899 21.8318 17.6654 23.6559 15.4234 23.6559C13.181 23.6559 11.3565 21.8314 11.3565 19.589C11.3565 19.5885 11.3565 19.5881 11.3565 19.5877V17.0721ZM37.3484 8.60592L38.7931 15.4608H30.7923L30.3106 8.60592H37.3484ZM28.6955 8.60592L29.1768 15.4608H21.16L21.6417 8.60592H28.6955ZM21.1017 17.0721H29.2355V19.589C29.2355 21.8314 27.411 23.6559 25.1686 23.6559C22.9262 23.6559 21.1017 21.8314 21.1017 19.589C21.1017 19.5885 21.1017 19.5881 21.1017 19.5877V17.0721ZM30.8469 17.0721H38.9803V19.589C38.9803 21.8314 37.1562 23.6559 34.9138 23.6559C32.6709 23.6559 30.8469 21.8314 30.8469 19.589V17.0721ZM48.3944 15.4608H40.4397L38.9954 8.60592H45.8297C45.9237 8.60592 46.008 8.6655 46.0391 8.75404L48.3944 15.4608ZM5.85197 1.61133H44.4852C45.1717 1.61133 45.7302 2.16984 45.7302 2.85633V6.99417H38.0009C37.9992 6.99417 37.9976 6.99417 37.9959 6.99417H4.60697V2.85633C4.60697 2.16984 5.16548 1.61133 5.85197 1.61133ZM4.29771 8.75404C4.32877 8.66508 4.41311 8.60592 4.5071 8.60592H11.3632L9.89918 15.4608H1.94241L4.29771 8.75404ZM1.61133 19.589V17.0721H9.74518V19.5894C9.74476 21.8318 7.92068 23.6559 5.67825 23.6559C3.43582 23.6559 1.61133 21.8314 1.61133 19.589ZM45.7302 46.9446H39.5136C39.0684 46.9446 38.708 47.3055 38.708 47.7503C38.708 48.1951 39.0684 48.5559 39.5136 48.5559H48.227C48.5018 48.5559 48.7255 48.7796 48.7255 49.0545V52.8902C48.7255 53.165 48.5018 53.3887 48.227 53.3887H2.10983C1.83498 53.3887 1.61133 53.165 1.61133 52.8902V49.0545C1.61133 48.7796 1.83498 48.5559 2.10983 48.5559H36.5251C36.9699 48.5559 37.3308 48.1951 37.3308 47.7503C37.3308 47.3055 36.9699 46.9446 36.5251 46.9446H19.7438V28.6233C19.7438 27.5596 18.8786 26.6943 17.8148 26.6943H8.14686C7.08355 26.6943 6.21788 27.5596 6.21788 28.6233V46.9446H4.60655V25.1644C4.95399 25.2311 5.31193 25.2672 5.67825 25.2672C7.74487 25.2672 9.55761 24.1569 10.5508 22.5019C11.5441 24.1569 13.3564 25.2672 15.4234 25.2672C17.49 25.2672 19.3024 24.1569 20.2956 22.5019C21.2893 24.1569 23.1016 25.2672 25.1682 25.2672C27.2352 25.2672 29.0475 24.1569 30.0408 22.5019C31.0344 24.1569 32.8468 25.2672 34.9134 25.2672C36.98 25.2672 38.7927 24.1569 39.786 22.5019C40.7792 24.1569 42.5919 25.2672 44.6585 25.2672C45.0249 25.2672 45.3828 25.2311 45.7298 25.1644V46.9446H45.7302ZM7.82963 46.9446V28.6233C7.82963 28.4483 7.97188 28.3057 8.14728 28.3057H17.8152C17.9902 28.3057 18.1329 28.4479 18.1329 28.6233V46.9446H7.82963Z" fill="#F1AE06"/>
<path d="M42.1899 26.6943H23.042C21.9787 26.6943 21.113 27.5596 21.113 28.6233V40.6982C21.113 41.7619 21.9783 42.6272 23.042 42.6272H42.1899C43.2537 42.6272 44.1189 41.7619 44.1189 40.6982V28.6233C44.1189 27.5596 43.2533 26.6943 42.1899 26.6943ZM42.5076 40.6982C42.5076 40.8736 42.3649 41.0159 42.1899 41.0159H23.042C22.867 41.0159 22.7243 40.8736 22.7243 40.6982V28.6233C22.7243 28.4483 22.867 28.3057 23.042 28.3057H42.1899C42.3649 28.3057 42.5076 28.4479 42.5076 28.6233V40.6982Z" fill="#F1AE06"/>
</svg>
