<svg width="54" height="55" viewBox="0 0 54 55" fill="none" xmlns="http://www.w3.org/2000/svg">
<path d="M51.5176 32.2152H50.6946V24.8014C50.6946 23.6277 50.1104 22.5885 49.2183 21.9571V20.9477C49.2183 19.4834 48.0271 18.2922 46.5628 18.2922H45.9482L48.2996 14.8418C49.0877 13.6853 48.788 12.1031 47.6315 11.3148L31.676 0.441584C31.1158 0.0596992 30.4406 -0.0812383 29.7741 0.0451973C29.108 0.171418 28.5308 0.549436 28.1491 1.10975L14.3775 21.3183H10.5452L11.4698 11.9586C11.4802 11.8531 11.5487 11.7617 11.6443 11.7257C12.8355 11.2766 13.8678 10.4378 14.5511 9.36405C14.6049 9.27951 14.7064 9.23117 14.8114 9.2418L20.8222 9.83563C21.2532 9.87742 21.6366 9.56353 21.6791 9.13277C21.7217 8.70201 21.407 8.31841 20.9763 8.27587L14.9655 7.68204C14.2678 7.61372 13.6024 7.93523 13.2286 8.52261C12.7263 9.31216 11.9672 9.92877 11.0914 10.259C10.4322 10.5076 9.9795 11.0997 9.90989 11.8045L8.97016 21.3182H7.97081L9.43304 6.515C9.48568 5.98219 9.96124 5.59075 10.4947 5.64414L22.6413 6.84404C23.0721 6.88561 23.4557 6.57194 23.4982 6.14118C23.5408 5.71041 23.2261 5.32681 22.7954 5.28427L10.6487 4.08437C9.25612 3.94698 8.01078 4.96802 7.87317 6.36085L6.69453 18.2922H4.68736C3.2232 18.2922 2.03189 19.4834 2.03189 20.9477V21.6363C0.834024 22.1878 0 23.3986 0 24.8014V51.5167C0 53.4374 1.56256 55 3.48337 55H47.2113C49.132 55 50.6946 53.4374 50.6946 51.5167V44.1031H51.5176C52.4891 44.1031 53.2794 43.3128 53.2794 42.3414V33.977C53.2796 33.0055 52.4891 32.2152 51.5176 32.2152ZM46.5628 19.8597C47.1628 19.8596 47.6509 20.3477 47.6509 20.9478V21.3471C47.5067 21.3288 47.3603 21.3184 47.2113 21.3184H43.886L44.88 19.8597H46.5628ZM29.4442 1.99233C29.5903 1.77802 29.8111 1.63343 30.0659 1.58509C30.1268 1.5736 30.1879 1.5678 30.2486 1.5678C30.4417 1.5678 30.6303 1.62559 30.7934 1.73666L46.7488 12.6099C47.1912 12.9114 47.3059 13.5167 47.0045 13.959L41.9894 21.3181H40.7859L43.2446 17.7101C43.6434 17.125 43.6763 16.3803 43.3301 15.7666C42.8702 14.9513 42.6837 13.9912 42.8051 13.0632C42.8953 12.3728 42.5915 11.6989 42.0123 11.3042L33.741 5.66755C33.1617 5.27278 32.4233 5.23658 31.8138 5.57313C30.9947 6.02538 30.0329 6.20294 29.1059 6.07318C28.4184 5.97671 27.7211 6.28716 27.3282 6.86348L17.4778 21.3182H16.2742L29.4442 1.99233ZM29.7894 15.3009C26.3765 15.3009 23.5749 17.9621 23.3467 21.3182H19.3743L28.6232 7.74617H28.6233C28.6759 7.66893 28.763 7.62295 28.8525 7.62295C28.8644 7.62295 28.8763 7.62381 28.8882 7.62543C30.1491 7.80181 31.457 7.56054 32.5712 6.94534C32.6588 6.89678 32.7714 6.90377 32.8582 6.96285L41.1296 12.5996C41.2162 12.6587 41.2638 12.7609 41.2509 12.8602C41.0858 14.1223 41.3395 15.4279 41.965 16.5367C42.0152 16.6258 42.0091 16.7399 41.9496 16.8274L38.8893 21.3181H36.2325C36.004 17.9621 33.2025 15.3009 29.7894 15.3009ZM34.6608 21.3183H24.9181C25.1426 18.8273 27.241 16.8684 29.7894 16.8684C32.3379 16.8683 34.4364 18.8273 34.6608 21.3183ZM3.59928 20.9477C3.59928 20.3476 4.0873 19.8595 4.68736 19.8595H6.53974L6.39569 21.3182H3.59928V20.9477ZM1.56739 24.8014C1.56739 23.7451 2.42688 22.8856 3.48337 22.8856H47.2113C48.2678 22.8856 49.1272 23.7451 49.1272 24.8014V26.9761H1.56739V24.8014ZM49.1272 51.5167C49.1272 52.5731 48.2678 53.4326 47.2113 53.4326H3.48337C2.42688 53.4326 1.56739 52.5731 1.56739 51.5167V49.3421H5.79359C6.2265 49.3421 6.57723 48.9912 6.57723 48.5584C6.57723 48.1256 6.22639 47.7748 5.79359 47.7748H1.56739V28.5435H49.1272V32.2152H41.6756C39.3278 32.2152 37.2941 33.5837 36.3289 35.5647C36.3257 35.5714 36.322 35.5778 36.3187 35.5845C36.3105 35.6013 36.3035 35.6188 36.2955 35.6358C36.1806 35.88 36.0807 36.1327 35.9993 36.3936C35.9991 36.3943 35.9989 36.395 35.9987 36.3957C35.8252 36.9531 35.7316 37.5453 35.7316 38.1591C35.7316 41.4367 38.3981 44.1031 41.6755 44.1031H49.1271V47.7748H10.8117C10.3788 47.7748 10.0281 48.1256 10.0281 48.5584C10.0281 48.9912 10.3789 49.3421 10.8117 49.3421H49.1272V51.5167ZM51.7122 42.3413C51.7122 42.4485 51.6249 42.5357 51.5176 42.5357H41.6758C40.0167 42.5357 38.5702 41.6077 37.8282 40.2436C37.7945 40.1816 37.7622 40.1186 37.7314 40.0549C37.6699 39.9274 37.6143 39.7965 37.5652 39.6624C37.3931 39.1934 37.2993 38.687 37.2993 38.1591C37.2993 37.6313 37.3932 37.1249 37.5652 36.6559C37.6144 36.5219 37.67 36.391 37.7314 36.2634C37.7622 36.1997 37.7945 36.1367 37.8282 36.0747C38.5702 34.7106 40.0167 33.7826 41.6758 33.7826H51.5176C51.6248 33.7826 51.7122 33.8698 51.7122 33.977V42.3413Z" fill="#F1AE06"/>
<path d="M41.8594 34.9795C40.1061 34.9795 38.6797 36.4059 38.6797 38.1591C38.6797 39.9124 40.1061 41.3387 41.8594 41.3387C43.6128 41.3387 45.0391 39.9124 45.0391 38.1591C45.0391 36.4059 43.6128 34.9795 41.8594 34.9795ZM41.8594 39.7713C40.9704 39.7713 40.2471 39.0481 40.2471 38.1591C40.2471 37.2702 40.9704 36.5468 41.8594 36.5468C42.7484 36.5468 43.4717 37.2701 43.4717 38.1591C43.4717 39.0482 42.7484 39.7713 41.8594 39.7713Z" fill="#F1AE06"/>
</svg>
