<svg width="44" height="55" viewBox="0 0 44 55" fill="none" xmlns="http://www.w3.org/2000/svg">
<path d="M42.9083 19.1534C43.3533 19.1534 43.714 18.7928 43.714 18.3477V10.5646C43.714 8.97334 42.4735 7.66338 40.8899 7.58249C31.3348 7.09595 26.1993 3.18831 23.9887 0.902383C23.426 0.320453 22.6689 0 21.857 0C21.0451 0 20.288 0.320453 19.7255 0.902275C17.5147 3.1882 12.3792 7.09584 2.82392 7.58249C1.24045 7.66338 0 8.97323 0 10.5646V33.0276C0 39.497 3.48073 45.5255 9.08409 48.7608L18.1991 54.0224C19.3274 54.6742 20.592 55 21.8571 55C23.1218 55 24.3869 54.6742 25.5149 54.0225L34.6301 48.7609C40.2333 45.5256 43.7141 39.4971 43.7141 33.0277V22.1078C43.7141 21.6628 43.3534 21.3021 42.9084 21.3021C42.4634 21.3021 42.1027 21.6628 42.1027 22.1078V33.0277C42.1027 38.9232 38.9306 44.4171 33.8244 47.3654L24.7091 52.6272C22.95 53.6433 20.7641 53.6432 19.0048 52.6271L9.88968 47.3654C4.78349 44.4171 1.6114 38.9232 1.6114 33.0277V10.5646C1.6114 9.832 2.18011 9.2289 2.90599 9.19184C13.0132 8.67716 18.508 4.47915 20.8839 2.02252C21.1401 1.7575 21.4857 1.61151 21.857 1.61151C22.2283 1.61151 22.5739 1.7575 22.8302 2.02263C25.2059 4.47915 30.7007 8.67716 40.8078 9.19184C41.5339 9.22901 42.1026 9.832 42.1026 10.5646V18.3477C42.1026 18.7928 42.4633 19.1534 42.9083 19.1534Z" fill="#F1AE06"/>
<path d="M5.1468 21.3019C4.70184 21.3019 4.34111 21.6626 4.34111 22.1076V33.0275C4.34111 37.9507 6.98992 42.539 11.254 45.0018L20.3695 50.2637C20.8219 50.5246 21.3363 50.6626 21.857 50.6626C22.3777 50.6626 22.8921 50.5246 23.3449 50.2635L32.4602 45.0017C36.7242 42.539 39.373 37.9507 39.373 33.0275V13.5339C39.373 12.5828 38.6632 11.7767 37.7225 11.6591C30.496 10.7502 25.7422 8.00478 23.0257 5.86097C22.3376 5.31965 21.3765 5.31965 20.6876 5.86173C17.972 8.00478 13.2181 10.7502 5.99236 11.659C5.05109 11.7767 4.34121 12.5828 4.34121 13.5339V18.3477C4.34121 18.7928 4.70195 19.1534 5.14691 19.1534C5.59187 19.1534 5.95261 18.7928 5.95261 18.3477V13.5339C5.95261 13.3936 6.05552 13.275 6.19282 13.2579C13.787 12.3027 18.8096 9.3966 21.6849 7.12753C21.7861 7.04772 21.9277 7.04761 22.0283 7.12678C24.9045 9.3966 29.9271 12.3028 37.522 13.258C37.6586 13.275 37.7616 13.3937 37.7616 13.5339V33.0275C37.7616 37.377 35.4214 41.4306 31.6545 43.6063L22.5397 48.8679C22.1236 49.1079 21.5904 49.1077 21.1749 48.8681L12.0599 43.6065C8.2929 41.4306 5.95261 37.3771 5.95261 33.0275V22.1076C5.9525 21.6626 5.59187 21.3019 5.1468 21.3019Z" fill="#F1AE06"/>
<path d="M12.0903 25.6094C12.7446 25.6094 13.3597 25.8641 13.8222 26.3267L18.0323 30.5357C18.347 30.8504 18.857 30.8502 19.1717 30.5357L23.7835 25.9238C24.0981 25.6091 24.0981 25.099 23.7835 24.7844C23.4688 24.4698 22.9587 24.4698 22.6441 24.7844L18.602 28.8266L14.9617 25.1873C14.1949 24.4204 13.1752 23.9981 12.0904 23.9981C11.0056 23.9981 9.98594 24.4205 9.21913 25.1872C8.45178 25.9547 8.02916 26.9747 8.02916 28.0595C8.02916 29.1446 8.45189 30.1644 9.21913 30.931L15.7297 37.4416C16.4961 38.2092 17.5161 38.632 18.6021 38.632C19.6873 38.632 20.707 38.2091 21.4728 37.4421L34.4948 24.42C35.2623 23.6531 35.685 22.6333 35.685 21.5484C35.685 20.4635 35.2624 19.4434 34.4951 18.6761C33.7283 17.9093 32.7086 17.4871 31.6238 17.4871C30.539 17.4871 29.5193 17.9094 28.7525 18.6761L25.303 22.1255C24.9884 22.4402 24.9884 22.9503 25.303 23.2649C25.6177 23.5795 26.1278 23.5795 26.4424 23.2649L29.8919 19.8155C30.3543 19.353 30.9693 19.0984 31.6238 19.0984C32.2781 19.0984 32.8931 19.353 33.3557 19.8156C33.8187 20.2786 34.0738 20.8939 34.0738 21.5484C34.0738 22.2027 33.8188 22.8176 33.3557 23.2803L20.3329 36.3032C19.871 36.7659 19.2563 37.0207 18.6021 37.0207C17.9471 37.0207 17.332 36.7659 16.8696 36.3026L10.3583 29.7913C9.89548 29.3288 9.64056 28.7138 9.64056 28.0595C9.64056 27.405 9.89559 26.7897 10.3586 26.3267C10.821 25.8641 11.436 25.6094 12.0903 25.6094Z" fill="#F1AE06"/>
</svg>
