<svg width="15" height="15" fill="none" xmlns="http://www.w3.org/2000/svg"><path d="M10.438.09h-6.46C1.785.09 0 1.827 0 3.96v6.28c0 2.133 1.785 3.868 3.978 3.868h6.46c2.194 0 3.979-1.735 3.979-3.868V3.96c0-2.133-1.785-3.868-3.979-3.868zm2.7 10.15c0 1.446-1.211 2.624-2.7 2.624h-6.46c-1.488 0-2.699-1.178-2.699-2.625V3.96c0-1.447 1.211-2.625 2.7-2.625h6.46c1.488 0 2.699 1.178 2.699 2.625v6.28z" fill="#fff"/><path d="M7.209 3.488c-2.049 0-3.715 1.62-3.715 3.611 0 1.992 1.666 3.612 3.715 3.612 2.048 0 3.714-1.62 3.714-3.612 0-1.991-1.666-3.611-3.714-3.611zm0 5.98c-1.343 0-2.436-1.063-2.436-2.369 0-1.306 1.092-2.368 2.436-2.368 1.343 0 2.435 1.062 2.435 2.368 0 1.306-1.092 2.368-2.435 2.368zm3.871-7.035a.955.955 0 00-.663.267.904.904 0 00-.276.645c0 .24.1.475.276.645a.959.959 0 001.326 0 .906.906 0 00.274-.645c0-.24-.1-.476-.274-.645a.956.956 0 00-.664-.267z" fill="#fff"/></svg>