<svg width="74" height="58" viewBox="0 0 74 58" fill="none" xmlns="http://www.w3.org/2000/svg">
<path d="M37.6475 57.3426C53.3608 57.3426 66.099 44.6045 66.099 28.8912C66.099 13.1779 53.3608 0.439697 37.6475 0.439697C21.9342 0.439697 9.19604 13.1779 9.19604 28.8912C9.19604 44.6045 21.9342 57.3426 37.6475 57.3426Z" fill="white"/>
<path d="M16.5771 13.4517L11.5856 9.82433L12.5801 3.12964L22.3383 5.2596L16.5771 13.4517Z" fill="white"/>
<path d="M54.8933 7.55323L61.0279 14.2936L63.9123 10.9253V4.15063H54.8933V7.55323Z" fill="white"/>
<path d="M6.97495 33.4976L5.52704 33.6385V34.633L6.25099 35.1817L6.88731 34.9531L7.13498 34.7283L6.97495 33.4976Z" fill="white"/>
<path d="M5.52704 32.2897L5.71755 33.0708L6.41103 33.2728L6.98638 33.0708L7.24929 32.4002L6.88731 31.6077L5.71755 31.741L5.52704 32.2897Z" fill="white"/>
<path d="M5.70996 30.2284L5.71758 31.1734L6.0948 31.4553H6.70064L7.13501 31.1162L7.24932 30.3961L6.88734 29.9236L5.70996 30.2284Z" fill="white"/>
<path d="M66.0995 34.2559V41.8574H73.019V34.5188L66.0995 34.2559Z" fill="white"/>
<path d="M66.4194 44.5818L65.4135 52.2176L66.9643 52.8235C66.9643 52.8235 72.855 51.9547 72.7674 48.3997L66.4194 44.5818Z" fill="white"/>
<path d="M60.3113 46.0564V52.8235H54.1082L60.3113 46.0564Z" fill="white"/>
<path d="M10.9982 16.1038C10.3657 14.5073 10.0875 12.8346 9.91225 11.1428C9.66839 8.81093 9.36738 6.48284 9.46264 4.12808C9.48169 3.71656 9.52741 3.30505 9.60362 2.90497C9.85891 1.52183 10.7162 0.794066 12.1337 0.748343C13.6235 0.698809 15.0485 1.0646 16.466 1.43039C18.7674 2.02479 21.0574 2.67254 23.3435 3.3241C23.736 3.4346 24.0561 3.41936 24.4142 3.22885C28.2855 1.20177 32.4273 0.169178 36.771 0.0167662C40.4137 -0.108974 43.9649 0.474002 47.4056 1.71616C48.8535 2.23817 50.2595 2.85925 51.6045 3.60606C51.8903 3.7661 52.1341 3.78515 52.4618 3.66703C55.5329 2.54299 58.6307 1.48754 61.8047 0.691189C62.5172 0.512105 63.245 0.420658 63.9842 0.466381C64.9596 0.531156 65.5807 1.04936 65.8779 1.9524C66.0112 2.35629 66.1217 2.78685 66.1294 3.20979C66.2018 7.2449 65.9693 11.2571 65.0282 15.2008C64.8796 15.8257 64.651 16.4315 64.3119 16.984C64.1785 17.1974 64.2052 17.3765 64.2966 17.586C66.0265 21.5907 66.7733 25.7782 66.6399 30.1295C66.6209 30.7011 66.5714 31.2726 66.5409 31.8404C66.5409 31.867 66.5714 31.8975 66.6133 31.9661C67.2686 31.4898 67.9774 31.1355 68.789 31.0326C70.214 30.8459 71.4981 31.1545 72.5383 32.1947C73.007 32.6634 73.1975 33.2578 73.3423 33.9093C73.6661 35.342 73.4794 36.7823 73.4985 38.215C73.5442 41.347 73.5709 44.4829 73.5251 47.615C73.4947 49.4554 72.4392 50.789 71.0256 51.852C70.0273 52.6027 68.8461 52.8884 67.6421 53.1285C66.9333 53.2695 66.2284 53.2733 65.5159 53.2733C62.0409 53.2733 58.5659 53.3076 55.0909 53.2466C54.0545 53.2275 53.1744 53.4905 52.3132 54.0087C50.3281 55.2013 48.2095 56.1196 45.992 56.7711C42.2617 57.8685 38.4628 58.2609 34.5801 57.8266C32.0615 57.5446 29.6191 56.9845 27.2605 56.07C22.4253 54.1992 18.3635 51.2652 15.1019 47.234C14.7856 46.8453 14.4732 46.4566 14.1607 46.0642C14.2026 45.8927 14.2407 45.7175 14.2941 45.546C15.4105 42.0634 15.8677 38.516 15.3267 34.8734C17.9367 34.8734 20.5506 34.8581 23.1607 34.881C23.6179 34.8848 23.7246 34.7552 23.7131 34.3171C23.6827 33.0673 23.6941 31.8137 23.7093 30.5639C23.7131 30.2629 23.6255 30.1676 23.3169 30.1676C20.242 30.1829 17.1632 30.1829 14.0883 30.1867C13.8673 29.9962 13.7454 29.8323 14.1684 29.7485C14.397 29.7066 14.618 29.638 14.8428 29.5694C17.1023 28.9064 19.0493 27.7862 20.3639 25.7591C22.0823 23.1072 21.4232 19.5369 18.8817 17.6775C18.2759 17.2355 18.0168 17.3003 17.6738 17.9747C17.5862 18.15 17.5443 18.371 17.2395 18.4776C17.2395 17.8642 17.2166 17.3155 17.2471 16.7668C17.2699 16.3553 17.148 16.2105 16.7098 16.2181C15.0104 16.2448 13.311 16.2296 11.6155 16.2258C11.3983 16.2258 11.1735 16.2715 10.9982 16.1038ZM65.5235 36.9462C64.7996 39.6438 63.6031 42.1358 62.1324 44.5744C63.2145 44.5744 64.1975 44.5591 65.1806 44.582C65.5464 44.5896 65.6683 44.4943 65.6645 44.1133C65.6455 41.7395 65.6531 39.3619 65.6493 36.9881C65.7369 36.9195 65.6683 36.8623 65.6188 36.8395C65.5273 36.8052 65.5045 36.8623 65.5235 36.9462ZM33.6352 31.4555C33.1284 31.1774 32.8388 30.8154 33.0141 30.2629C33.1894 29.7066 33.639 29.577 34.161 29.5847C34.3591 29.5885 34.5534 29.5809 34.7516 29.5809C39.0877 29.5809 43.42 29.577 47.7561 29.5885C48.1753 29.5885 48.2743 29.5008 48.1753 29.0779C47.9428 28.0682 47.7752 27.0432 47.5542 26.0297C47.4856 25.721 47.5466 25.5457 47.8095 25.3667C48.7582 24.7189 49.6003 23.9454 50.4195 23.1376C53.8488 19.7579 55.5291 15.6047 55.8225 10.8571C55.9216 9.27579 55.4186 8.52135 53.9212 7.93456C52.6447 7.43541 51.3378 7.01247 50.0461 6.55523C48.6668 6.06752 47.3294 5.45787 45.9005 5.09208C44.6126 4.76058 43.5495 5.00444 42.6008 6.02941C40.6004 8.19747 39.423 10.6932 39.3011 13.65C39.282 14.0539 39.1868 14.1758 38.7676 14.1072C37.9332 13.9663 37.0835 13.9815 36.2528 14.1377C35.8528 14.2101 35.8185 14.0691 35.8032 13.7376C35.647 10.7466 34.5306 8.1708 32.4806 5.97226C31.6652 5.09589 30.7431 4.85584 29.6191 5.10351C28.3541 5.38166 27.1843 5.92654 25.9803 6.37996C24.4752 6.94769 22.9549 7.46971 21.4574 8.05649C20.2801 8.51754 19.678 9.40915 19.7504 10.6894C19.8571 12.5907 20.1353 14.4768 20.7449 16.2753C22.1852 20.5162 24.921 23.7663 28.6627 26.1859C29.0666 26.4488 29.2076 26.666 29.0933 27.1613C28.6284 29.2189 28.2093 31.2879 27.7825 33.353C27.2758 35.8069 26.7995 38.2645 26.4909 40.7526C26.0984 43.9342 26.2432 47.1158 26.5366 50.2936C26.5975 50.9718 26.708 51.6615 26.4947 52.3169C26.3537 52.7475 26.4604 52.9342 26.8528 53.1247C32.2444 55.7195 37.857 56.4244 43.7096 55.1327C45.851 54.6602 47.8895 53.8982 49.8365 52.8884C50.1414 52.7322 50.229 52.5722 50.1871 52.2292C50.1337 51.8063 50.1452 51.3681 50.1909 50.9452C50.7701 45.828 50.469 40.7603 49.4593 35.7192C49.3602 35.2315 49.2078 35.102 48.7163 35.1058C43.8963 35.1325 39.0801 35.1248 34.26 35.1325C33.8104 35.1325 33.4446 35.0029 33.2389 34.5838C33.0446 34.1837 33.1246 33.8179 33.4485 33.5131C33.5666 33.4026 33.6237 33.3378 33.4751 33.1778C32.8274 32.4691 32.8579 32.0956 33.6352 31.4555ZM69.6044 35.0258C68.6899 35.0258 67.7792 35.041 66.8648 35.022C66.5218 35.0143 66.3961 35.1096 66.3999 35.4716C66.4189 37.171 66.4189 38.8742 66.4037 40.5736C66.3999 40.9089 66.4952 40.966 66.8343 40.9622C68.7127 40.9355 70.5912 40.8784 72.4697 41.0232C72.8012 41.0498 72.7631 40.8708 72.7631 40.6726C72.7631 38.9351 72.7517 37.2014 72.7669 35.464C72.7707 35.0943 72.6259 35.0143 72.2906 35.022C71.3952 35.0372 70.4998 35.0258 69.6044 35.0258ZM59.4385 5.88081C58.8098 5.877 58.1849 5.89605 57.5714 6.04084C56.6227 6.26565 56.3178 6.77242 56.7446 7.6526C57.4914 9.18053 58.5469 10.4951 59.93 11.501C60.7721 12.1106 61.3589 11.9125 61.7247 10.9485C62.2238 9.62633 62.3915 8.247 62.361 6.84101C62.3534 6.44092 62.1743 6.21993 61.7818 6.12467C61.0121 5.93797 60.2272 5.877 59.4385 5.88081ZM15.5324 5.25973C15.1933 5.25973 14.8542 5.26354 14.5151 5.25973C14.0921 5.25592 13.8521 5.45787 13.7797 5.877C13.532 7.30586 13.5549 8.73091 13.9283 10.1331C14.1684 11.0323 14.6713 11.2724 15.4981 10.838C17.0299 10.0378 18.2835 8.89094 19.236 7.45446C19.8152 6.58191 19.5523 5.97988 18.5464 5.66743C17.5671 5.36261 16.5574 5.24068 15.5324 5.25973ZM66.4837 45.3288C66.4609 45.3936 66.4304 45.4431 66.4304 45.4888C66.4266 47.5959 66.4304 49.7068 66.4189 51.8139C66.4189 52.1187 66.5904 52.214 66.8267 52.2902C67.4439 52.4998 68.0307 52.2826 68.6137 52.134C70.1568 51.7492 71.3571 50.8804 72.1725 49.5049C72.2601 49.3601 72.4506 49.2115 72.0925 49.0743C69.9587 48.2589 68.2212 46.8339 66.4837 45.3288ZM60.1586 47.4969C60.1167 47.4778 60.0748 47.4588 60.0291 47.4397C58.524 49.3182 56.7179 50.8918 54.8928 52.4617C56.5655 52.5188 58.2078 52.515 59.8462 52.5226C60.0786 52.5226 60.1586 52.4274 60.1586 52.2026C60.1548 50.6327 60.1586 49.0667 60.1586 47.4969Z" fill="#010101"/>
<path d="M10.9984 16.1116C11.1775 16.2792 11.3985 16.2373 11.6081 16.2373C13.3075 16.2373 15.0068 16.2526 16.7024 16.2297C17.1406 16.2221 17.2625 16.3669 17.2397 16.7784C17.2092 17.3271 17.2321 17.8757 17.2321 18.4892C17.5369 18.3825 17.5788 18.1615 17.6664 17.9862C18.0132 17.3118 18.2723 17.247 18.8743 17.689C21.4158 19.5446 22.0749 23.1149 20.3565 25.7707C19.042 27.7977 17.0949 28.918 14.8354 29.581C14.6144 29.6457 14.3896 29.7143 14.161 29.7601C13.738 29.8401 13.8638 30.0077 14.0809 30.1982C14.0619 30.4383 14.1686 30.6555 14.2524 30.865C14.7706 32.1643 15.0716 33.517 15.3193 34.8849C15.8642 38.5275 15.4031 42.0749 14.2867 45.5575C14.2334 45.7252 14.1953 45.9043 14.1533 46.0757C13.7456 46.8873 13.437 47.7408 12.9417 48.5105C11.7186 50.4233 10.3278 50.4766 9.00944 48.6248C7.90065 47.0702 7.35196 45.2756 6.89473 43.4543C6.29651 41.0614 6.03741 38.638 6.26603 36.1728C6.2927 35.8908 6.34986 35.6089 6.39177 35.3269C7.44722 34.9497 7.58058 34.622 7.13478 33.5018C7.08905 33.3836 7.09667 33.296 7.16526 33.2084C7.49294 32.7816 7.53486 32.3434 7.24908 31.8748C7.19955 31.7948 7.16526 31.6271 7.21098 31.5738C7.59963 31.1203 7.36339 30.4611 7.72537 30.023C7.99971 29.6877 7.6263 29.8172 7.55772 29.7296C7.03571 29.3676 6.4032 29.2723 5.83928 29.0056C3.89222 28.0797 2.27284 26.7956 1.43838 24.7571C0.59631 22.6958 1.00782 20.7716 2.32618 19.0112C2.93202 18.1996 3.7398 17.609 4.53234 17.0032C4.73048 16.8508 4.89051 16.8393 5.08865 17.0375C5.63733 17.5823 5.85071 18.2187 5.74783 18.9807C5.61828 19.9181 5.48492 20.8554 5.38204 21.7927C5.22582 23.1911 5.67162 23.8312 7.24908 24.4371C7.79777 24.6466 8.36169 24.8219 8.95229 24.8905C11.1013 25.3744 13.2541 25.283 15.3955 24.8943C16.3443 24.7228 16.9653 24.1322 17.2587 23.1797C17.4835 22.4481 17.4759 21.7127 17.4683 20.9697C17.4607 20.1772 17.4531 20.1772 16.7024 20.1886C16.5233 20.1924 16.3443 20.1924 16.1652 20.1924C14.1076 20.2 12.0501 20.2076 9.9925 20.2153C8.86465 20.2076 7.7368 20.181 6.61277 20.2076C6.11362 20.2191 5.90405 20.0819 5.9231 19.5485C5.9574 18.6187 5.95358 17.689 5.93453 16.7593C5.92691 16.3821 6.06789 16.2602 6.43368 16.264C7.75585 16.2792 9.08184 16.2716 10.404 16.2678C10.6136 16.2678 10.8422 16.3173 10.9984 16.1116ZM10.9641 17.6128C9.98107 17.6128 8.9942 17.6128 8.01114 17.6128C6.48322 17.6128 6.48703 17.6128 6.56704 19.1369C6.58228 19.4189 6.65468 19.5637 6.97093 19.5561C8.06068 19.537 9.15423 19.537 10.244 19.5294C11.8862 19.5408 13.5323 19.5561 15.1745 19.5637C16.6415 19.5713 16.6262 19.5637 16.6262 18.112C16.6262 17.7119 16.5119 17.5938 16.1118 17.6014C14.3972 17.6243 12.6788 17.6128 10.9641 17.6128ZM12.5797 45.3708C12.5454 44.8755 12.4654 44.3916 12.2482 43.961C11.9929 43.4543 11.6157 43.0275 10.9984 42.9894C10.3735 42.9513 9.95821 43.3247 9.68767 43.8467C9.14661 44.8831 9.13137 45.9386 9.68767 46.9712C9.9544 47.4627 10.3583 47.8132 10.9679 47.7942C11.5509 47.7789 11.8976 47.4246 12.1758 46.9521C12.4692 46.4568 12.5378 45.9157 12.5797 45.3708Z" fill="#DE7F21" stroke="black" stroke-width="2" stroke-miterlimit="10"/>
<path d="M9.9923 20.2114C12.0499 20.2037 14.1074 20.1961 16.165 20.1885C16.3441 20.1885 16.5231 20.1885 16.7022 20.1847C17.4529 20.1733 17.4567 20.1733 17.4681 20.9658C17.4757 21.7088 17.4833 22.448 17.2585 23.1758C16.9651 24.1284 16.3441 24.719 15.3953 24.8904C13.2501 25.2791 11.0973 25.3705 8.95209 24.8866C9.13879 23.5111 9.43219 22.1584 9.83608 20.8286C9.89323 20.6305 9.93895 20.4209 9.9923 20.2114Z" fill="#010101"/>
<path d="M7.55779 29.7217C7.62638 29.8093 7.99979 29.6798 7.72545 30.0151C7.36728 30.4533 7.60352 31.1124 7.21106 31.5659C7.16533 31.6192 7.19963 31.7869 7.24916 31.8669C7.53874 32.3355 7.49302 32.7737 7.16533 33.2005C7.09675 33.2881 7.08913 33.3758 7.13485 33.4939C7.58447 34.6179 7.44729 34.9418 6.39184 35.319C5.50023 35.0866 5.06586 34.6598 5.29448 34.0578C5.48499 33.551 5.57263 33.1433 5.29829 32.6442C5.1535 32.3813 5.27162 32.0383 5.51166 31.8097C5.7098 31.623 5.68694 31.4973 5.51929 31.2915C5.26019 30.9753 5.24875 30.6019 5.44689 30.2399C5.63359 29.897 5.91937 29.7293 6.31945 29.7369C6.73477 29.7484 7.14628 29.7293 7.55779 29.7217ZM7.02435 30.8648C7.0434 30.3313 6.79954 30.1332 6.43757 30.1256C6.0794 30.118 5.80887 30.3085 5.79363 30.7009C5.77839 31.0934 6.03749 31.2953 6.39946 31.3106C6.76144 31.322 7.00149 31.1277 7.02435 30.8648ZM6.97482 34.2483C6.94434 33.8559 6.72334 33.6463 6.35755 33.6425C5.9689 33.6387 5.69837 33.8559 5.7098 34.2559C5.72123 34.6332 5.98414 34.8237 6.35374 34.8199C6.71572 34.8122 6.94815 34.6255 6.97482 34.2483ZM6.36517 33.0709C6.70048 33.0214 6.98625 32.8766 6.98625 32.4956C6.98625 32.1031 6.72334 31.8859 6.3385 31.8936C5.97271 31.9012 5.71361 32.1031 5.71742 32.488C5.72123 32.8728 5.99557 33.0366 6.36517 33.0709Z" fill="#010101"/>
<path d="M10.964 17.6128C12.6786 17.6128 14.3932 17.6205 16.1117 17.6014C16.5118 17.5976 16.6261 17.7119 16.6261 18.112C16.6261 19.5675 16.6413 19.5713 15.1744 19.5637C13.5321 19.5561 11.8861 19.5408 10.2438 19.5294C10.4839 18.8931 10.7239 18.253 10.964 17.6128Z" fill="#010101"/>
<path d="M37.2476 28.5865C33.4221 28.476 30.0652 27.0891 27.116 24.7229C24.2926 22.4596 22.1626 19.659 21.0348 16.1878C20.448 14.3817 20.1394 12.5071 20.0479 10.6057C19.9984 9.61124 20.4518 8.8949 21.3472 8.4491C21.9073 8.16713 22.4903 7.93852 23.0885 7.75562C25.0546 7.14978 26.9179 6.2658 28.8726 5.62948C29.2269 5.51517 29.5965 5.43515 29.9661 5.35895C30.8044 5.18748 31.5017 5.41991 32.1075 6.03718C34.2032 8.17094 35.3158 10.7315 35.5215 13.7073C35.552 14.1341 35.4377 14.3246 35.0071 14.4579C33.1287 15.0523 31.6503 16.1573 30.9035 18.0358C30.0842 20.101 30.7777 22.2614 32.6714 23.8236C35.4415 26.1098 40.2272 25.9917 42.8487 23.5722C45.5083 21.1145 45.1997 17.4185 42.1476 15.3762C41.5113 14.9495 40.8521 14.5494 40.0672 14.4503C39.5414 14.3855 39.4004 14.0502 39.5033 13.6044C39.7662 12.4537 39.8157 11.2459 40.2615 10.1485C40.9626 8.42242 42.0257 6.92498 43.4279 5.68663C44.049 5.13795 44.8187 5.17986 45.5731 5.33608C46.9791 5.62948 48.2822 6.24293 49.6273 6.71922C50.797 7.13454 51.9706 7.52319 53.1403 7.93852C53.5099 8.07188 53.8643 8.24334 54.2225 8.40337C55.1941 8.84156 55.6094 9.63791 55.537 10.6553C55.2589 14.7323 54.0929 18.4778 51.38 21.6441C48.5756 24.921 45.154 27.1919 40.9055 28.1255C39.709 28.3998 38.4936 28.6132 37.2476 28.5865ZM44.0833 14.0921C45.5807 13.9397 47.0172 13.4215 48.4003 12.7433C48.8499 12.5223 49.2881 12.2823 49.6311 11.905C49.753 11.7717 49.8825 11.6269 49.8025 11.4326C49.7225 11.2382 49.5282 11.2268 49.3491 11.2077C49.2424 11.1963 49.1357 11.1887 49.029 11.2001C47.2039 11.3564 45.5007 11.8898 43.9423 12.85C43.7327 12.9795 43.5384 13.1548 43.386 13.3453C43.0888 13.7187 43.1955 13.974 43.6565 14.0617C43.7823 14.0845 43.908 14.0807 44.0833 14.0921ZM27.5847 11.2687C27.2646 11.2916 26.9865 11.2344 26.8645 11.4707C26.7274 11.7412 26.9636 11.9317 27.116 12.1222C27.1503 12.1641 27.1884 12.2022 27.2303 12.2327C28.5906 13.2653 30.1147 13.9245 31.8141 14.1417C32.0694 14.176 32.3857 14.2103 32.5266 13.9131C32.6638 13.6235 32.439 13.4139 32.2714 13.2043C32.218 13.1358 32.1494 13.0748 32.077 13.0215C30.7206 11.9927 29.1698 11.4669 27.5847 11.2687Z" fill="#010101"/>
<path d="M31.2616 47.0815C31.2616 45.8813 31.2578 44.6848 31.2616 43.4846C31.2654 41.9224 32.4352 40.6955 33.8831 40.7374C35.3805 40.7793 36.4512 41.9757 36.4321 43.5494C36.4131 45.5193 36.4207 47.4854 36.4055 49.4553C36.4017 49.9735 36.375 50.4879 36.3293 51.0023C36.2035 52.3816 35.0985 53.338 33.704 53.2885C32.3628 53.239 31.3225 52.2026 31.2768 50.8347C31.254 50.2098 31.2654 49.5811 31.2654 48.9562C31.2616 48.3313 31.2654 47.7064 31.2616 47.0815ZM33.8335 41.6404C32.9076 41.648 32.1684 42.4177 32.1646 43.3779C32.1608 44.3571 32.9343 45.1573 33.8678 45.1421C34.7937 45.1268 35.5291 44.3571 35.5329 43.397C35.5329 42.4101 34.7861 41.6328 33.8335 41.6404Z" fill="#010101"/>
<path d="M40.9817 46.7423C40.9817 45.5421 40.9703 44.3456 40.9855 43.1454C41.0046 41.5412 42.1667 40.3677 43.668 40.4134C45.1273 40.4591 46.1637 41.6937 46.1409 43.2902C46.1142 45.2029 46.137 47.1195 46.1256 49.0361C46.1218 49.5695 46.0989 50.1068 46.0532 50.6402C45.9389 52.0005 44.8454 53.0026 43.5118 52.9836C42.1439 52.9645 41.0541 51.9319 40.997 50.5526C40.9589 49.6076 40.9817 48.6551 40.9817 47.7063C40.9817 47.3824 40.9817 47.0624 40.9817 46.7385C40.9855 46.7423 40.9817 46.7423 40.9817 46.7423ZM45.2492 43.0768C45.2531 42.1166 44.5177 41.3317 43.5956 41.3164C42.6582 41.2974 41.8733 42.0937 41.8695 43.0654C41.8619 44.0065 42.6201 44.8067 43.5308 44.8219C44.4834 44.8372 45.2454 44.0637 45.2492 43.0768Z" fill="#010101"/>
<path d="M37.6321 14.2939C38.3865 14.3206 39.1105 14.2978 39.8077 14.5911C40.4098 14.8426 40.707 15.2694 40.5165 15.8828C40.0859 17.2927 39.2819 18.451 38.0969 19.335C37.7997 19.556 37.533 19.5788 37.2282 19.3274C36.1079 18.4053 35.3078 17.2545 34.8467 15.8867C34.6334 15.258 34.9268 14.7779 35.5364 14.553C36.2299 14.3016 36.9462 14.3282 37.6321 14.2939Z" fill="#010101"/>
</svg>
