<svg width="48" height="45" viewBox="0 0 48 45" fill="none" xmlns="http://www.w3.org/2000/svg">
<path d="M16.1755 36.4219C14.5481 36.4219 13.2241 35.0947 13.2241 33.4635C13.2241 31.8322 14.5481 30.5051 16.1755 30.5051C17.8029 30.5051 19.127 31.8322 19.127 33.4635C19.127 35.0947 17.8029 36.4219 16.1755 36.4219ZM16.1755 31.9146C15.3234 31.9146 14.6303 32.6094 14.6303 33.4634C14.6303 34.3174 15.3235 35.0122 16.1755 35.0122C17.0275 35.0122 17.7207 34.3174 17.7207 33.4634C17.7207 32.6094 17.0276 31.9146 16.1755 31.9146Z" fill="white"/>
<path d="M24.0469 36.4219C22.4195 36.4219 21.0954 35.0947 21.0954 33.4635C21.0954 31.8322 22.4195 30.5051 24.0469 30.5051C25.6743 30.5051 26.9983 31.8322 26.9983 33.4635C26.9983 35.0947 25.6743 36.4219 24.0469 36.4219ZM24.0469 31.9146C23.1948 31.9146 22.5017 32.6094 22.5017 33.4634C22.5017 34.3174 23.1949 35.0122 24.0469 35.0122C24.8989 35.0122 25.5921 34.3174 25.5921 33.4634C25.5921 32.6094 24.899 31.9146 24.0469 31.9146Z" fill="white"/>
<path d="M31.9182 36.4219C30.2908 36.4219 28.9668 35.0947 28.9668 33.4635C28.9668 31.8322 30.2908 30.5051 31.9182 30.5051C33.5456 30.5051 34.8697 31.8322 34.8697 33.4635C34.8697 35.0947 33.5456 36.4219 31.9182 36.4219ZM31.9182 31.9146C31.0661 31.9146 30.373 32.6094 30.373 33.4634C30.373 34.3174 31.0662 35.0122 31.9182 35.0122C32.7702 35.0122 33.4634 34.3174 33.4634 33.4634C33.4634 32.6094 32.7703 31.9146 31.9182 31.9146Z" fill="white"/>
<path d="M47.2969 38.9048H45.7143V15.1066C45.7143 13.5016 44.4115 12.1958 42.8102 12.1958C42.8102 12.1958 35.5885 12.1972 35.5667 12.1992C35.0152 11.5358 34.2118 11.0904 33.3052 11.0109C33.3052 11.0109 33.3144 9.39153 33.3144 9.33834C33.3144 4.18913 29.1351 0 23.9978 0C18.8606 0 14.6813 4.18913 14.6813 9.33834C14.6813 9.39031 14.672 11.0126 14.672 11.0126C13.7746 11.0974 12.98 11.5413 12.4331 12.1992C12.4113 12.1972 12.3892 12.1958 12.3668 12.1958H5.28337C3.68212 12.1958 2.37937 13.5016 2.37937 15.1066V38.9048H0.703125C0.314719 38.9048 0 39.2204 0 39.6096V42.8806C0 44.0492 0.948469 45 2.11444 45H32.6166C33.005 45 33.3197 44.6845 33.3197 44.2952C33.3197 43.906 33.005 43.5905 32.6166 43.5905H2.11444C1.72397 43.5905 1.40625 43.272 1.40625 42.8806V40.3143H10.6563C11.0447 40.3143 11.3594 39.9988 11.3594 39.6096C11.3594 39.2204 11.0447 38.9048 10.6563 38.9048H7.06697V17.4369C7.06697 17.1377 7.30988 16.8943 7.60828 16.8943H12.8589C12.8629 16.8943 12.8667 16.8937 12.8707 16.8937C13.4303 17.3581 14.144 17.6416 14.9221 17.6566C15.9378 21.7103 19.6039 24.7209 23.9588 24.7209C25.4634 24.7209 26.95 24.3542 28.2749 23.6596C28.7393 24.5069 29.638 25.0826 30.6687 25.0826C31.9302 25.0826 32.9942 24.2202 33.3055 23.0527L34.1751 22.5958C34.9426 22.1925 35.3688 21.3448 35.2357 20.4863L34.7229 17.1824C34.8654 17.0963 35.0011 17.0001 35.1287 16.8943H40.3918C40.6903 16.8943 40.9331 17.1377 40.9331 17.4369V38.9048H13.4688C13.0804 38.9048 12.7657 39.2204 12.7657 39.6096C12.7657 39.9988 13.0804 40.3143 13.4688 40.3143H17.5949C17.9131 41.6559 19.1179 42.6572 20.5523 42.6572H27.4477C28.8821 42.6572 30.0869 41.6559 30.4052 40.3143H46.5938V42.8806C46.5938 43.272 46.276 43.5905 45.8856 43.5905H35.4291C35.0407 43.5905 34.7259 43.906 34.7259 44.2952C34.7259 44.6845 35.0407 45 35.4291 45H45.8856C47.0515 45 48 44.0492 48 42.8806V39.6096C48 39.2204 47.6853 38.9048 47.2969 38.9048ZM34.9299 14.3277C34.9299 15.3115 34.1881 16.1237 33.2358 16.2346C33.2612 15.9538 33.2754 15.6714 33.2754 15.3874L33.2956 12.4299C34.2188 12.5674 34.9299 13.3648 34.9299 14.3277ZM23.998 1.40944C28.1049 1.40944 31.4898 4.56313 31.8714 8.58114C30.4784 7.9368 29.233 6.99739 28.2288 5.82645L28.1334 5.71528C27.9233 5.47012 27.5737 5.39964 27.2852 5.54445L26.6331 5.87183C23.76 7.31416 20.6872 8.25188 17.4997 8.65886L16.1051 8.83693C16.3643 4.69788 19.8044 1.40944 23.998 1.40944ZM5.66072 17.4369V38.9048H3.78572V15.1066C3.78572 14.2789 4.45762 13.6054 5.28347 13.6054H11.7435C11.6919 13.8381 11.6639 14.0796 11.6639 14.3277C11.6639 14.7344 11.7373 15.1242 11.871 15.4848H7.60828C6.53437 15.4848 5.66072 16.3604 5.66072 17.4369ZM13.0701 14.3277C13.0701 13.3795 13.7598 12.5915 14.6624 12.4364L14.6423 15.3826C14.6423 15.6655 14.6557 15.9452 14.6804 16.2218C13.769 16.074 13.0701 15.2822 13.0701 14.3277ZM23.9589 23.3113C19.5972 23.3113 16.0486 19.7545 16.0486 15.3874L16.0836 10.2606L17.6775 10.0571C21.0228 9.62993 24.2477 8.64579 27.2629 7.13214L27.4308 7.04785C28.6702 8.39903 30.2027 9.45393 31.9051 10.1284L31.8693 15.3827C31.8693 16.8869 31.4475 18.3474 30.6504 19.6118C29.185 19.6215 27.9907 20.7947 27.9419 22.2541C27.896 22.2684 27.8507 22.2874 27.807 22.3119C26.6376 22.9657 25.3069 23.3113 23.9589 23.3113ZM30.6687 23.6731C29.9392 23.6731 29.3457 23.0782 29.3457 22.3469C29.3457 21.6157 29.9392 21.0207 30.6687 21.0207C31.3983 21.0207 31.9918 21.6157 31.9918 22.3469C31.9918 23.0782 31.3983 23.6731 30.6687 23.6731ZM33.846 20.7029C33.8867 20.9652 33.7565 21.2242 33.522 21.3474L33.2588 21.4857C33.05 20.8565 32.6194 20.3282 32.06 19.9945C32.4778 19.2585 32.7923 18.4728 32.9962 17.6572C33.002 17.6573 33.0076 17.6581 33.0135 17.6581C33.1342 17.6581 33.2531 17.6512 33.3705 17.6385L33.846 20.7029ZM40.3917 15.4848H36.1291C36.2629 15.1242 36.3362 14.7344 36.3362 14.3277C36.3362 14.0796 36.3082 13.8381 36.2566 13.6054H42.8103C43.6362 13.6054 44.3081 14.2789 44.3081 15.1066V38.9048H42.3394V17.4369C42.3393 16.3604 41.4656 15.4848 40.3917 15.4848ZM27.4476 41.2475H20.5522C19.9028 41.2475 19.3405 40.8657 19.0773 40.3142H28.9227C28.6594 40.8657 28.0972 41.2475 27.4476 41.2475Z" fill="white"/>
<path d="M19.8885 15.1925C19.5001 15.1925 19.1854 15.5081 19.1854 15.8973V16.5157C19.1854 16.9049 19.5001 17.2205 19.8885 17.2205C20.2769 17.2205 20.5916 16.9049 20.5916 16.5157V15.8973C20.5916 15.5081 20.2768 15.1925 19.8885 15.1925Z" fill="white"/>
<path d="M28.3778 16.5157V15.8973C28.3778 15.5081 28.063 15.1925 27.6746 15.1925C27.2862 15.1925 26.9715 15.5081 26.9715 15.8973V16.5157C26.9715 16.9049 27.2862 17.2205 27.6746 17.2205C28.063 17.2205 28.3778 16.9049 28.3778 16.5157Z" fill="white"/>
<path d="M25.299 17.9715C24.9593 17.7829 24.5314 17.9059 24.3432 18.2462C24.2716 18.3757 24.1357 18.4561 23.9885 18.4561C23.8417 18.4561 23.7058 18.3761 23.6343 18.2472C23.4453 17.9072 23.0168 17.7851 22.6778 17.9746C22.3387 18.1641 22.2169 18.5932 22.4059 18.9332C22.7256 19.5084 23.332 19.8656 23.9886 19.8656C24.6468 19.8656 25.2539 19.5069 25.5732 18.9295C25.7614 18.5892 25.6387 18.1602 25.299 17.9715Z" fill="white"/>
<path d="M20.108 12.4702C19.2384 12.3929 18.3899 12.7521 17.8385 13.4317C17.5935 13.7336 17.6391 14.1776 17.9403 14.4232C18.0707 14.5295 18.2275 14.5812 18.3835 14.5812C18.5879 14.5812 18.7905 14.4924 18.9294 14.3211C19.1857 14.0053 19.5795 13.8379 19.9835 13.8742C20.3706 13.9088 20.7117 13.6223 20.7461 13.2346C20.7804 12.847 20.4948 12.5047 20.108 12.4702Z" fill="white"/>
<path d="M27.9937 13.8743C28.3973 13.8377 28.7914 14.0054 29.0477 14.3212C29.1866 14.4925 29.3893 14.5813 29.5936 14.5813C29.7495 14.5813 29.9064 14.5297 30.0368 14.4233C30.3381 14.1777 30.3836 13.7338 30.1387 13.4318C29.5872 12.7522 28.739 12.3928 27.8692 12.4703C27.4823 12.5048 27.1967 12.847 27.231 13.2348C27.2654 13.6224 27.6072 13.9089 27.9937 13.8743Z" fill="white"/>
<path d="M29.0162 28.4327C29.4046 28.4327 29.7193 28.1172 29.7193 27.728C29.7193 27.3387 29.4046 27.0232 29.0162 27.0232H18.9838C18.5954 27.0232 18.2807 27.3387 18.2807 27.728C18.2807 28.1172 18.5954 28.4327 18.9838 28.4327H29.0162Z" fill="white"/>
</svg>
